<?xml version="1.0" encoding="utf-8" ?>
<svg xmlns="http://www.w3.org/2000/svg" xmlns:xlink="http://www.w3.org/1999/xlink" width="200" height="200">
	<path fill="#F9F9F9" transform="matrix(0.260417 0 0 0.260417 -1.52588e-05 0)" d="M372.819 142.688L373.216 142.649C378.404 142.245 383.749 142.421 388.957 142.44C447.38 142.651 504.15 166.477 547.854 204.802C563.467 218.494 577.81 234.869 589.287 252.188C595.795 262.007 601.352 273.114 606.107 283.875C617.86 310.48 624.539 337.856 626.388 366.889C628.945 407.041 620.412 448.57 602.247 484.5C599.307 490.315 595.914 495.823 592.518 501.375C585.577 512.722 578.493 522.853 569.695 532.845C536.423 570.631 488.763 598.121 439.5 608.341C424.7 611.412 409.697 612.513 394.644 613.465C358.201 614.19 321.471 609.945 287.438 596.266C281.394 593.836 275.651 590.848 269.812 587.983L251.906 578.845C244.515 574.634 237.099 569.526 230.26 564.46C223.778 559.659 217.76 554.297 211.686 549.005C203.473 541.85 196.547 533.599 189.823 525.065C160.733 488.152 143.428 443.682 140.252 396.769C137.604 357.656 145.59 317.001 162.29 281.546C166.211 273.221 170.893 265.309 175.716 257.482C182.539 246.41 189.685 236.063 198.268 226.272C228.268 192.048 268.91 166.475 312.419 153.297C332.007 147.365 352.426 144.054 372.819 142.688ZM375.176 526.936C371.944 531.901 369.694 537.437 367.379 542.868C366.177 546.575 365.681 550.287 364.82 554.062C362.338 564.948 360.708 575.537 359.143 586.557C358.525 590.914 357.326 595.227 357.136 599.625C357.824 600.476 359.066 600.551 360.084 600.779C362.504 600.663 365.206 601.307 367.671 601.459L384.34 601.857C398.682 601.767 413.476 601.158 427.66 599.043C447.74 596.049 468.168 589.927 486.534 581.29C510.003 570.254 532.6 555.632 551.23 537.513C563.449 525.628 574.223 511.965 583.323 497.593C589.499 487.84 595.508 477.112 599.421 466.238L599.511 465.122C599.724 464.042 599.856 463.308 599.845 462.188C597.85 462.845 597.661 463.656 596.438 465.159L594.78 464.54C593.18 463.865 591.696 463.178 590.204 462.279C587.647 461.291 585.273 459.791 582.741 458.722C575.332 455.594 567.902 453.1 560.193 450.846C555.522 449.288 550.504 449.125 545.772 447.715L545.311 447.687C543.868 447.524 542.752 446.883 541.472 446.231L541.007 446.366C535.898 447.718 529.755 446.82 524.438 447.161C517.615 447.6 510.474 449.046 503.808 450.533C474.347 457.107 445.911 469.632 420.958 486.63L401.273 501.512C395.602 505.963 390.317 510.772 385.159 515.803C381.513 519.359 377.976 522.636 375.176 526.936ZM472.51 390.462L459.208 394.105L437.513 402.787C434.418 404.941 430.901 407.452 427.257 408.563C422.463 410.834 417.492 413.508 413.321 416.809C410.538 419.011 408.065 421.66 405.314 423.938L404.918 425.062L404.539 425.213C403.958 425.474 403.543 425.824 403.056 426.225L393.449 429.973L393.123 430.192C390.822 431.673 388.512 431.746 386.2 433.441L385.437 433.96L384.938 434.301L383.812 434.373C383.014 433.522 382.891 432.821 382.902 431.625C382.915 430.263 383.578 429.012 383.752 427.688C383.94 426.259 383.616 424.636 383.41 423.223C375.279 428.205 371.979 437.085 366.453 444.438C363.366 448.546 359.722 452.21 356.356 456.085C355.456 457.121 353.793 459.738 352.728 460.238L347.468 467.373L342.87 474.843C341.51 477.02 339.959 479.127 338.907 481.474L338.463 481.345L337.892 479.925C337.397 481.694 336.777 483.229 335.948 484.87C335.066 485.166 334.465 485.053 333.562 484.941C332.469 485.517 332.32 485.913 331.675 486.938L331.292 485.404L326.852 497.981L321.838 509.625C321.144 511.277 320.638 513.302 319.663 514.79C318.322 516.722 317.582 519.081 316.765 521.281C314.624 527.047 313.076 532.659 311.999 538.704L311.766 539.005C317.278 551.981 328.426 562.144 334.334 574.825L334.526 575.25C335.598 573.22 336.012 570.354 336.749 568.125C337.894 564.663 339.307 561.224 340.819 557.91C343.895 551.165 348.673 545.314 351.894 538.647C354.994 532.231 356.261 525.106 359.047 518.555C361.983 511.648 366.685 505.174 371.228 499.258L386.701 480.685C385.739 489.795 381.707 498.337 379.119 507.067L374.644 525L375.176 526.936C377.976 522.636 381.513 519.359 385.159 515.803C390.317 510.772 395.602 505.963 401.273 501.512L420.958 486.63C445.911 469.632 474.347 457.107 503.808 450.533C510.474 449.046 517.615 447.6 524.438 447.161C529.755 446.82 535.898 447.718 541.007 446.366L541.472 446.231C542.746 444.63 542.577 442.901 544.306 441.525C546.567 440.468 548.733 438.748 550.847 437.391C551.014 436.84 553.536 435.212 554.135 434.752L563.398 428.734C564.729 427.903 566.039 426.773 567.469 426.162C569.376 425.347 570.845 423.706 572.812 423.078C577.339 421.632 581.857 417.859 585.726 415.077C587.254 413.979 588.642 413.257 589.918 411.813C586.512 413.356 583.382 416.006 580.216 418.041C579.306 417.138 578.733 415.926 577.824 414.986C575.461 412.541 572.543 410.468 569.753 408.54C551.39 395.847 527.893 386.459 505.346 386.503C494.335 386.524 483.312 388.504 472.51 390.462ZM242.343 488.025L242.828 497.45C242.936 499.186 243.276 501.169 242.999 502.871C241.181 502.367 239.527 500.929 238.065 499.765C237.408 497.56 235.181 495.726 233.598 494.09C229.914 490.282 226.175 486.342 221.981 483.093C221.486 484.588 221.5 485.197 219.938 485.862C218.806 486.343 218.066 486.473 217.025 487.223L216.68 487.466L215.201 487.099L206.979 484.848L200.645 483.475C204.421 489.361 211.37 492.795 214.6 498.831C215.896 501.253 216.574 504.181 217.323 506.817L216.883 506.548C216.305 506.185 216.519 506.355 216.094 505.928L216.087 506.503C216.053 506.926 215.846 507.326 215.833 507.75L216.157 509.057C216.866 511.794 216.28 514.959 216.707 517.864C216.806 518.537 216.766 519.194 217.213 519.708C217.604 520.156 217.473 519.974 217.669 520.595L217.488 520.977C217.016 522.34 217.894 526.576 217.145 527.396C216.874 527.693 216.399 527.737 216.111 528.018C215.46 528.655 214.752 530.381 214.686 531.281C215.416 532.241 215.168 533.071 216.08 533.675L215.725 534.642C214.905 534.802 214.095 534.124 213.361 533.736C217.025 538.189 221.753 542.19 226.125 545.947C229.248 548.63 232.421 551.551 235.941 553.701L236.368 553.97L238.783 555.692L250.125 563.346C252.152 564.606 255.648 566.117 257.296 567.757L266.579 572.922C278.527 579.602 290.795 584.999 303.744 589.433C305.951 590.189 308.36 591.397 310.684 591.562L310.498 591.094L310.076 591.023C309.57 590.922 309.254 590.777 308.811 590.531L309 590.062L309.375 590.434L310.125 590.438L310.5 590.809C311.297 590.809 311.291 590.907 312 590.434L314.847 590.281C315.478 590.175 317.005 590.678 317.667 590.835C320.934 591.608 324.098 592.76 327.43 593.27C326.235 589.602 324.381 587.283 322.22 584.176C316.854 576.457 311.887 568.02 307.775 559.559C302.587 548.885 298.127 536.857 290.576 527.6C285.187 520.992 277.756 515.892 270.66 511.28C271.079 514.264 271.723 517.429 271.684 520.444C257.189 515.513 256.989 495.204 247.79 484.796C245.321 482.002 242.34 480.338 238.986 478.833L242.199 487.473L242.343 488.025ZM391.323 393.957L390.833 394.179C387.938 395.458 384.626 396.188 381.618 397.222C376.919 398.838 372.355 400.744 367.834 402.803C356.719 407.865 346.847 414.121 336.735 420.889C324.794 428.881 308.767 438.989 303.203 452.91C300.576 459.483 299.391 466.888 298.887 473.915C297.762 489.58 299.813 505.309 304.286 520.31C305.523 524.459 306.719 528.601 308.443 532.582L311.766 539.005L311.999 538.704C313.076 532.659 314.624 527.047 316.765 521.281C317.582 519.081 318.322 516.722 319.663 514.79C320.638 513.302 321.144 511.277 321.838 509.625L326.852 497.981L331.292 485.404L331.675 486.938C332.32 485.913 332.469 485.517 333.562 484.941C334.465 485.053 335.066 485.166 335.948 484.87C336.777 483.229 337.397 481.694 337.892 479.925L338.463 481.345L338.907 481.474C339.959 479.127 341.51 477.02 342.87 474.843L347.468 467.373L352.728 460.238C353.793 459.738 355.456 457.121 356.356 456.085C359.722 452.21 363.366 448.546 366.453 444.438C371.979 437.085 375.279 428.205 383.41 423.223C383.616 424.636 383.94 426.259 383.752 427.688C383.578 429.012 382.915 430.263 382.902 431.625C382.891 432.821 383.014 433.522 383.812 434.373L384.938 434.301L385.437 433.96L386.2 433.441C388.512 431.746 390.822 431.673 393.123 430.192L393.449 429.973C392.384 430.167 390.799 430.673 389.812 430.21L403.625 394.321C399.784 393.575 395.197 393.428 391.323 393.957ZM589.918 411.813C588.642 413.257 587.254 413.979 585.726 415.077C581.857 417.859 577.339 421.632 572.812 423.078C570.845 423.706 569.376 425.347 567.469 426.162C566.039 426.773 564.729 427.903 563.398 428.734L554.135 434.752C553.536 435.212 551.014 436.84 550.847 437.391C548.733 438.748 546.567 440.468 544.306 441.525C542.577 442.901 542.746 444.63 541.472 446.231C542.752 446.883 543.868 447.524 545.311 447.687L545.772 447.715C550.504 449.125 555.522 449.288 560.193 450.846C567.902 453.1 575.332 455.594 582.741 458.722C585.273 459.791 587.647 461.291 590.204 462.279C591.696 463.178 593.18 463.865 594.78 464.54L596.438 465.159C597.661 463.656 597.85 462.845 599.845 462.188C599.856 463.308 599.724 464.042 599.511 465.122L599.421 466.238C601.695 462.052 603.127 457.045 604.607 452.518C608.17 441.621 610.866 430.797 612.96 419.536C613.859 414.696 614.943 409.719 614.995 404.788L614.066 409.312C612.8 407.84 611.347 406.113 609.562 405.303C608.695 405.384 607.801 405.461 606.938 405.297C605.995 405.118 604.656 404.272 604.13 403.5L606.028 401.287L589.918 411.813ZM177.792 375.255L183.575 391.395C185.666 397.332 187.998 403.188 188.771 409.478C189.954 419.106 188.515 428.85 191.518 438.262C189.102 436.294 187.515 433.649 185.749 431.126C182.641 426.686 179.101 422.119 177.908 416.716C177.16 413.326 177.54 409.214 176.327 406.006C175.802 404.616 173.798 401.774 172.312 401.667C171.377 402.739 171.294 403.352 171.472 404.812C171.831 407.749 172.902 410.528 173.164 413.546C169.59 412.682 166.248 411.477 163.061 409.621C161.484 408.704 153.856 402.626 153.062 402.544C154.124 412.519 155.813 422.159 158.884 431.72C161.563 439.28 165.856 446.062 173.376 449.574C183.026 454.082 192.651 452.743 202.882 453.998L213 455.369C215.636 455.818 218.163 456.599 220.837 456.921C218.23 445.404 215.468 433.761 208.33 424.09C205.313 420.003 201.56 416.682 199.145 412.125C196.876 407.843 195.628 403.272 193.844 398.812C190.402 390.21 184.217 381.872 177.792 375.255ZM297.881 415.607C299.201 417.388 298.922 420.231 300.375 422.245C301.147 422.115 301.33 422.022 301.957 421.611C302.697 419.966 302.522 417.756 302.46 415.984C302.315 411.823 302.137 407.483 301.535 403.366C301.312 401.843 300.716 398.778 299.437 397.829L299.266 397.569C296.889 393.698 296.521 387.487 295.069 383.06C291.013 370.691 282.514 363.994 271.901 357.216C268.119 354.8 264.67 352.393 260.422 350.82C262.377 353.051 265.404 355.803 265.875 358.875L265.567 360.033C264.252 360.772 262.958 360.586 261.543 360.168C253.747 357.866 245.372 351.669 236.981 352.063L237.466 352.559L238.431 353.587C240.259 355.569 241.438 358.193 242.957 360.429C248.862 369.126 255.229 377.628 264.33 383.201C266.474 384.514 268.804 385.686 271.125 386.646C275.038 388.264 287.688 392.248 287.437 397.723L287.058 398.062L286.593 397.738C282.144 394.777 274.363 396.409 269.308 396.654C267.248 396.754 265.155 396.452 263.121 396.14C260.051 395.669 257.331 394.329 254.526 393.062C246.7 389.526 240.478 387.418 231.744 387.781C234.04 389.175 236.617 390.475 238.683 392.189C241.835 394.802 244.59 397.841 247.279 400.914C249.012 402.893 250.875 405.336 253.077 406.788C258.186 410.157 268.244 408.562 273.914 407.185C277.549 406.303 287.373 402.315 290.429 404.176C294.469 406.634 296.558 411.237 297.881 415.607ZM172.672 465.704L168.013 465.777L171.328 472.992C172.915 476.927 175.164 480.592 177.169 484.324C187.048 502.71 198.836 518.72 213.361 533.736C214.095 534.124 214.905 534.802 215.725 534.642L216.08 533.675C215.168 533.071 215.416 532.241 214.686 531.281C214.752 530.381 215.46 528.655 216.111 528.018C216.399 527.737 216.874 527.693 217.145 527.396C217.894 526.576 217.016 522.34 217.488 520.977L217.669 520.595C217.473 519.974 217.604 520.156 217.213 519.708C216.766 519.194 216.806 518.537 216.707 517.864C216.28 514.959 216.866 511.794 216.157 509.057L215.833 507.75C215.846 507.326 216.053 506.926 216.087 506.503L216.094 505.928C216.519 506.355 216.305 506.185 216.883 506.548L217.323 506.817C216.574 504.181 215.896 501.253 214.6 498.831C211.37 492.795 204.421 489.361 200.645 483.475L206.979 484.848L215.201 487.099L216.68 487.466L217.025 487.223C218.066 486.473 218.806 486.343 219.938 485.862C221.5 485.197 221.486 484.588 221.981 483.093L219.854 481.571L216.871 479.465L215.586 478.791L202.811 470.756L202.799 470.723C196.199 466.902 188.191 465.497 180.661 465.349C177.991 465.297 175.308 465.207 172.672 465.704ZM265.734 308.169C266.823 310.162 267.88 312.574 269.461 314.224C272.388 317.28 279.003 319.253 283.032 320.449C287.564 321.794 292.05 323.232 296.169 325.611C302.69 329.378 307.469 335.549 311.043 342.062C313.064 345.748 314.49 349.888 315.988 353.816C318.883 361.41 321.878 369.406 322.925 377.512C323.513 373.705 323.732 369.998 323.627 366.148L317.941 333.229C317.26 331.817 317.097 330.763 317.074 329.194L317.073 328.688L316.861 328.688L316.341 330.311C315.825 330.63 315.379 330.928 314.788 331.094C314.165 331.268 313.085 333.881 312.562 334.664C311.714 334.714 310.6 334.664 309.8 334.347C307.901 333.594 306.009 332.156 306.056 329.948C306.075 329.071 306.521 328.241 306.581 327.375C306.642 326.502 305.928 325.163 305.594 324.346L305.351 323.616C303.621 321.101 301.57 318.311 299.474 316.092C294.294 310.608 289.219 306.642 285.749 299.693C283.683 295.555 282.03 291.376 280.907 286.884C280.216 284.122 279.76 280.176 278.584 277.688L278.062 278.179C276.061 280.381 277.537 287.094 277.886 289.919L263.733 283.619C259 281.353 254.301 278.497 249.256 276.982C247.246 276.378 244.94 276.327 242.851 276.162C245.284 278.344 248.362 279.577 250.803 281.711C258.701 288.615 262.054 298.702 265.734 308.169ZM297.726 301.678L300.285 309.539L302.148 314.294L305.583 322.129L305.351 323.616L305.594 324.346C305.928 325.163 306.642 326.502 306.581 327.375C306.521 328.241 306.075 329.071 306.056 329.948C306.009 332.156 307.901 333.594 309.8 334.347C310.6 334.664 311.714 334.714 312.562 334.664C313.085 333.881 314.165 331.268 314.788 331.094C315.379 330.928 315.825 330.63 316.341 330.311L316.861 328.688L317.073 328.688L317.074 329.194C317.097 330.763 317.26 331.817 317.941 333.229L317.614 312.285C317.782 310.635 317.194 308.154 316.903 306.489C315.987 301.248 314.215 296.125 311.508 291.544C307.812 285.292 302.9 279.798 301.018 272.641C299.833 268.135 300.059 262.471 300.302 257.852C298.027 262.296 295.739 268.061 295.016 272.993C293.628 282.457 295.558 292.475 297.726 301.678ZM239.263 424.439C238.548 424.108 238.22 423.868 237.417 423.938L236.438 424.816C235.355 424.396 235.176 423.963 234.473 423.052L234.408 425.807C236.8 435.412 239.045 445.363 244.24 453.907C246.505 457.631 249.395 460.873 252.44 463.971C253.146 467.837 258.973 472.762 261.667 475.637L261.685 475.623L261.938 474.78C262.744 474.396 263.329 474.169 263.932 473.485L264.254 473.063C265.023 473.235 265.64 473.245 266.425 473.199L266.939 472.589L266.74 472.262L268.058 472.044C268.256 471.024 268.548 469.728 269.267 468.933C269.605 468.56 269.805 468.256 270.05 467.812L269.014 464.776L270.339 465.482L270.827 464.625L264.569 451.142C263.149 447.963 260.881 444.926 258.851 442.107C253.362 434.486 247.255 427.872 240.027 421.85L239.226 421.805L238.727 422.625L239.263 424.439ZM360.084 600.779C359.066 600.551 357.824 600.476 357.136 599.625C357.326 595.227 358.525 590.914 359.143 586.557C360.708 575.537 362.338 564.948 364.82 554.062C365.681 550.287 366.177 546.575 367.379 542.868C365.133 543.918 363.612 546.696 362.148 548.673C356.716 556.013 351.701 563.467 348.547 572.133C345.416 580.738 344.424 589.621 343.952 598.712L357.527 600.686C358.379 600.871 359.219 600.811 360.084 600.779ZM254.782 426.176L257.438 426.919L257.615 427.312L256.873 427.873C255.514 428.065 256.491 427.827 255.75 427.312C255.293 426.995 254.185 426.871 253.616 426.637C251.777 425.88 250.091 424.964 248.344 424.031C246.95 423.287 246.006 422.36 244.756 421.443C243.742 420.699 242.75 419.64 241.679 419.024C241.189 418.742 241.427 418.927 240.911 418.457L240.562 418.125L240.202 420.156L240.053 420.711L240.027 421.85C247.255 427.872 253.362 434.486 258.851 442.107C260.881 444.926 263.149 447.963 264.569 451.142L265.321 451.021L265.793 450.938L266.055 450.428L266.909 451.266L266.344 452.156L266.725 452.45L267.839 453.39L267.844 454.689C268.276 455.037 268.574 455.208 269.066 455.438C269.013 454.73 269.043 454.209 268.705 453.572L269.564 452.874C269.488 451.916 269.455 451.909 270.002 451.127L270.562 450.941C270.899 450.767 271.295 450.4 271.312 450C271.338 449.421 271.176 448.888 270.832 448.43C270.383 447.831 270.604 448.456 270.469 447.377L271.073 447.094L273.154 449.812C274.376 450.266 274.748 450.109 276 449.88L276.881 450.562L277.214 448.835L276.042 445.837C274.38 441.719 271.767 438.114 269.514 434.319C267.32 430.623 265.491 426.899 263.73 422.987C262.806 420.82 261.447 418.779 260.662 416.587C260.398 415.847 260.079 415.579 259.5 415.077L258.489 415.241C258.612 416.294 259.294 416.366 259.555 417.188C260.167 419.116 259.146 423.917 258.468 425.812C257.294 426.329 256.038 426.19 254.782 426.176ZM269.564 452.874L268.705 453.572C269.043 454.209 269.013 454.73 269.066 455.438C268.574 455.208 268.276 455.037 267.844 454.689L267.839 453.39L266.725 452.45L266.344 452.156L266.909 451.266L266.055 450.428L265.793 450.938L265.321 451.021L264.569 451.142L270.827 464.625L270.339 465.482L271.064 465.935C270.933 467.46 270.91 469.336 271.886 470.625C272.172 471.004 272.596 471.257 273 471.489L273.623 471.188L276.4 473.916C277.352 472.743 278.634 470.745 280.074 470.247L280.42 469.851C280.92 469.293 280.707 469.501 281.296 469.041L278.956 455.558C278.896 453.399 277.89 450.891 277.214 448.835L276.881 450.562L276 449.88C274.748 450.109 274.376 450.266 273.154 449.812L271.073 447.094L270.469 447.377C270.604 448.456 270.383 447.831 270.832 448.43C271.176 448.888 271.338 449.421 271.312 450C271.295 450.4 270.899 450.767 270.562 450.941L270.002 451.127C269.455 451.909 269.488 451.916 269.564 452.874ZM266.939 472.589L266.425 473.199C265.64 473.245 265.023 473.235 264.254 473.063L263.932 473.485C263.329 474.169 262.744 474.396 261.938 474.78L261.685 475.623C265.267 479.581 269.396 483.399 273.592 486.702C276.546 489.027 279.749 491.1 282.589 493.553L279.836 489.301C279.364 488.204 279.33 486.814 279.189 485.626C278.507 482.863 277.407 481.113 275.681 478.926C275.032 478.844 272.825 476.458 272.182 475.913C270.583 474.556 268.78 473.569 266.939 472.589ZM269.014 464.776L270.05 467.812C269.805 468.256 269.605 468.56 269.267 468.933C268.548 469.728 268.256 471.024 268.058 472.044L266.74 472.262L266.939 472.589C268.78 473.569 270.583 474.556 272.182 475.913C272.825 476.458 275.032 478.844 275.681 478.926C277.407 481.113 278.507 482.863 279.189 485.626C279.404 485.438 280 485.467 280.288 485.438L279.969 483.668L280.504 483.623L281.285 483.409C282.266 483.281 281.719 483.53 282.319 483.188C282.195 481.575 282.258 480.04 282.377 478.429L281.978 474.231C281.946 472.483 281.588 470.762 281.296 469.041C280.707 469.501 280.92 469.293 280.42 469.851L280.074 470.247C278.634 470.745 277.352 472.743 276.4 473.916L273.623 471.188L273 471.489C272.596 471.257 272.172 471.004 271.886 470.625C270.91 469.336 270.933 467.46 271.064 465.935L270.339 465.482L269.014 464.776ZM233.144 421.901L234.408 425.807L234.473 423.052C235.176 423.963 235.355 424.396 236.438 424.816L237.417 423.938C238.22 423.868 238.548 424.108 239.263 424.439L238.727 422.625L239.226 421.805L240.027 421.85L240.053 420.711L240.202 420.156L240.562 418.125L240.911 418.457C241.427 418.927 241.189 418.742 241.679 419.024C242.75 419.64 243.742 420.699 244.756 421.443C246.006 422.36 246.95 423.287 248.344 424.031C250.091 424.964 251.777 425.88 253.616 426.637C254.185 426.871 255.293 426.995 255.75 427.312C256.491 427.827 255.514 428.065 256.873 427.873L257.615 427.312L257.438 426.919L254.782 426.176C252.618 425.267 250.465 424.404 248.456 423.175C246.198 421.794 244.19 419.898 242.06 418.32C237.355 414.834 232.686 412.484 226.927 411.361C227.795 412.967 229.059 414.416 230.059 415.952C231.287 417.839 232.217 419.855 233.144 421.901ZM606.028 401.287L604.13 403.5C604.656 404.272 605.995 405.118 606.938 405.297C607.801 405.461 608.695 405.384 609.562 405.303C611.347 406.113 612.8 407.84 614.066 409.312L614.995 404.788L615.375 394.619L606.028 401.287ZM282.377 478.429C282.258 480.04 282.195 481.575 282.319 483.188C281.719 483.53 282.266 483.281 281.285 483.409L280.504 483.623L279.969 483.668L280.288 485.438C280 485.467 279.404 485.438 279.189 485.626C279.33 486.814 279.364 488.204 279.836 489.301L280.28 488.411L281.812 490.409L283.098 490.098L283.334 489.241C283.126 488.762 282.847 488.21 282.749 487.688C282.527 486.498 282.794 485.886 283.381 484.885L282.377 478.429ZM283.381 484.885C282.794 485.886 282.527 486.498 282.749 487.688C282.847 488.21 283.126 488.762 283.334 489.241L283.098 490.098L281.812 490.409L280.28 488.411L279.836 489.301L282.589 493.553L286.02 497.217L283.381 484.885Z"/>
	<path fill="#008497" fill-opacity="0.074509807" transform="matrix(0.260417 0 0 0.260417 -1.52588e-05 0)" d="M282.377 478.429L283.381 484.885C282.794 485.886 282.527 486.498 282.749 487.688C282.847 488.21 283.126 488.762 283.334 489.241L283.098 490.098L281.812 490.409L280.28 488.411L279.836 489.301C279.364 488.204 279.33 486.814 279.189 485.626C279.404 485.438 280 485.467 280.288 485.438L279.969 483.668L280.504 483.623L281.285 483.409C282.266 483.281 281.719 483.53 282.319 483.188C282.195 481.575 282.258 480.04 282.377 478.429Z"/>
	<path fill="#F6B064" transform="matrix(0.260417 0 0 0.260417 -1.52588e-05 0)" d="M339.453 296.641L368.139 306.569C359.616 307.266 350.595 305.617 342.406 303.263C341.2 301.118 340.323 298.939 339.453 296.641Z"/>
	<path fill="#008497" fill-opacity="0.14117648" transform="matrix(0.260417 0 0 0.260417 -1.52588e-05 0)" d="M233.144 421.901C233.287 421.6 233.686 421.468 233.97 421.301C233.525 420.456 233.607 420.219 233.682 419.25C235.056 418.095 236.749 418.414 238.5 418.477C239.428 419.006 239.654 419.78 240.053 420.711L240.027 421.85L239.226 421.805L238.727 422.625L239.263 424.439C238.548 424.108 238.22 423.868 237.417 423.938L236.438 424.816C235.355 424.396 235.176 423.963 234.473 423.052L234.408 425.807L233.144 421.901Z"/>
	<path fill="#008497" fill-opacity="0.28235295" transform="matrix(0.260417 0 0 0.260417 -1.52588e-05 0)" d="M269.014 464.776L270.339 465.482L271.064 465.935C270.933 467.46 270.91 469.336 271.886 470.625C272.172 471.004 272.596 471.257 273 471.489L273.623 471.188L276.4 473.916C277.352 472.743 278.634 470.745 280.074 470.247L280.42 469.851C280.92 469.293 280.707 469.501 281.296 469.041C281.588 470.762 281.946 472.483 281.978 474.231L282.377 478.429C282.258 480.04 282.195 481.575 282.319 483.188C281.719 483.53 282.266 483.281 281.285 483.409L280.504 483.623L279.969 483.668L280.288 485.438C280 485.467 279.404 485.438 279.189 485.626C278.507 482.863 277.407 481.113 275.681 478.926C275.032 478.844 272.825 476.458 272.182 475.913C270.583 474.556 268.78 473.569 266.939 472.589L266.74 472.262L268.058 472.044C268.256 471.024 268.548 469.728 269.267 468.933C269.605 468.56 269.805 468.256 270.05 467.812L269.014 464.776ZM275.681 478.926C277.407 481.113 278.507 482.863 279.189 485.626C279.404 485.438 280 485.467 280.288 485.438L279.969 483.668L280.504 483.623L281.285 483.409C282.266 483.281 281.719 483.53 282.319 483.188C282.195 481.575 282.258 480.04 282.377 478.429L281.978 474.231C281.597 473.198 281.198 472.183 280.956 471.106L280.753 471.685C280.41 472.636 279.911 473.51 279.428 474.395L279.113 474.465C276.594 475.288 277.356 476.615 274.312 475.401L273.518 475.688C273.889 476.972 274.78 477.65 275.723 478.527L275.681 478.926Z"/>
	<path fill="#7DD0CF" fill-opacity="0.79215688" transform="matrix(0.260417 0 0 0.260417 -1.52588e-05 0)" d="M266.939 472.589C268.78 473.569 270.583 474.556 272.182 475.913C272.825 476.458 275.032 478.844 275.681 478.926C277.407 481.113 278.507 482.863 279.189 485.626C279.33 486.814 279.364 488.204 279.836 489.301L282.589 493.553C279.749 491.1 276.546 489.027 273.592 486.702C269.396 483.399 265.267 479.581 261.685 475.623L261.938 474.78C262.744 474.396 263.329 474.169 263.932 473.485L264.254 473.063C265.023 473.235 265.64 473.245 266.425 473.199L266.939 472.589Z"/>
	<path fill="#FCB260" transform="matrix(0.260417 0 0 0.260417 -1.52588e-05 0)" d="M454.338 374.191C455.15 373.457 456.212 373.136 457.214 372.71L457.5 373.043C460.119 376.128 462.307 379.544 464.982 382.586L469.848 387.778C470.718 388.656 471.81 389.45 472.51 390.462L459.208 394.105C456.38 388.219 455.399 380.588 454.338 374.191Z"/>
	<path fill="#FCB260" transform="matrix(0.260417 0 0 0.260417 -1.52588e-05 0)" d="M404.28 372.286C404.821 372.611 405.142 372.733 405.75 372.934L407.252 373.498L407.812 374.059C408.636 373.977 408.476 373.869 409.25 374.374C408.905 377.576 407.655 380.703 406.657 383.75L403.625 394.321C399.784 393.575 395.197 393.428 391.323 393.957C395.52 386.69 398.69 378.68 404.28 372.286Z"/>
	<path fill="#008094" fill-opacity="0.35294119" transform="matrix(0.260417 0 0 0.260417 -1.52588e-05 0)" d="M269.564 452.874C269.488 451.916 269.455 451.909 270.002 451.127L270.562 450.941C270.899 450.767 271.295 450.4 271.312 450C271.338 449.421 271.176 448.888 270.832 448.43C270.383 447.831 270.604 448.456 270.469 447.377L271.073 447.094L273.154 449.812C274.376 450.266 274.748 450.109 276 449.88L276.881 450.562L277.214 448.835C277.89 450.891 278.896 453.399 278.956 455.558L281.296 469.041C280.707 469.501 280.92 469.293 280.42 469.851L280.074 470.247C278.634 470.745 277.352 472.743 276.4 473.916L273.623 471.188L273 471.489C272.596 471.257 272.172 471.004 271.886 470.625C270.91 469.336 270.933 467.46 271.064 465.935L270.339 465.482L270.827 464.625L264.569 451.142L265.321 451.021L265.793 450.938L266.055 450.428L266.909 451.266L266.344 452.156L266.725 452.45L267.839 453.39L267.844 454.689C268.276 455.037 268.574 455.208 269.066 455.438C269.013 454.73 269.043 454.209 268.705 453.572L269.564 452.874ZM264.569 451.142L270.827 464.625L270.339 465.482L271.064 465.935C271.345 466.836 271.513 467.546 272.25 468.184L272.809 467.812L272.809 466.125C273.344 465.474 273.371 464.864 273.831 464.251C274.414 463.475 274.504 463.048 274.527 462.076C275.454 460.665 275.24 459.386 275.286 457.742C275.124 456.348 274.881 455.136 274.412 453.813C273.812 453.315 273.231 452.825 272.504 452.522C271.123 451.947 270.893 452.289 269.564 452.874L268.705 453.572C269.043 454.209 269.013 454.73 269.066 455.438C268.574 455.208 268.276 455.037 267.844 454.689L267.839 453.39L266.725 452.45L266.344 452.156L266.909 451.266L266.055 450.428L265.793 450.938L265.321 451.021L264.569 451.142ZM269.564 452.874C270.893 452.289 271.123 451.947 272.504 452.522C273.231 452.825 273.812 453.315 274.412 453.813C274.881 455.136 275.124 456.348 275.286 457.742C275.751 459.532 275.078 462.063 275.873 463.473C276.841 462.677 276.101 459.721 276.593 458.331C276.819 457.691 276.824 457.875 276.852 457.253C276.878 456.689 276.703 457.116 277.219 456.469C277.737 457.494 277.915 458.385 278.016 459.517C278.087 460.315 278.103 460.162 278.625 460.684L279.184 460.312C278.984 458.707 278.927 457.175 278.956 455.558C278.896 453.399 277.89 450.891 277.214 448.835L276.881 450.562L276 449.88C274.748 450.109 274.376 450.266 273.154 449.812L271.073 447.094L270.469 447.377C270.604 448.456 270.383 447.831 270.832 448.43C271.176 448.888 271.338 449.421 271.312 450C271.295 450.4 270.899 450.767 270.562 450.941L270.002 451.127C269.455 451.909 269.488 451.916 269.564 452.874Z"/>
	<path fill="#008497" fill-opacity="0.29411766" transform="matrix(0.260417 0 0 0.260417 -1.52588e-05 0)" d="M269.564 452.874C269.488 451.916 269.455 451.909 270.002 451.127L270.562 450.941C270.899 450.767 271.295 450.4 271.312 450C271.338 449.421 271.176 448.888 270.832 448.43C270.383 447.831 270.604 448.456 270.469 447.377L271.073 447.094L273.154 449.812C274.376 450.266 274.748 450.109 276 449.88L276.881 450.562L277.214 448.835C277.89 450.891 278.896 453.399 278.956 455.558C278.927 457.175 278.984 458.707 279.184 460.312L278.625 460.684C278.103 460.162 278.087 460.315 278.016 459.517C277.915 458.385 277.737 457.494 277.219 456.469C276.703 457.116 276.878 456.689 276.852 457.253C276.824 457.875 276.819 457.691 276.593 458.331C276.101 459.721 276.841 462.677 275.873 463.473C275.078 462.063 275.751 459.532 275.286 457.742C275.124 456.348 274.881 455.136 274.412 453.813C273.812 453.315 273.231 452.825 272.504 452.522C271.123 451.947 270.893 452.289 269.564 452.874Z"/>
	<path fill="#008095" fill-opacity="0.38431373" transform="matrix(0.260417 0 0 0.260417 -1.52588e-05 0)" d="M264.569 451.142L265.321 451.021L265.793 450.938L266.055 450.428L266.909 451.266L266.344 452.156L266.725 452.45L267.839 453.39L267.844 454.689C268.276 455.037 268.574 455.208 269.066 455.438C269.013 454.73 269.043 454.209 268.705 453.572L269.564 452.874C270.893 452.289 271.123 451.947 272.504 452.522C273.231 452.825 273.812 453.315 274.412 453.813C274.881 455.136 275.124 456.348 275.286 457.742C275.24 459.386 275.454 460.665 274.527 462.076C274.504 463.048 274.414 463.475 273.831 464.251C273.371 464.864 273.344 465.474 272.809 466.125L272.809 467.812L272.25 468.184C271.513 467.546 271.345 466.836 271.064 465.935L270.339 465.482L270.827 464.625L264.569 451.142ZM273.053 456C273.074 457.864 272.636 461.393 273.375 462.974C273.785 462.685 274.155 462.415 274.527 462.076C274.81 460.248 275.104 457.328 273.911 455.752L273.559 455.409L273.053 456Z"/>
	<path fill="#008497" fill-opacity="0.47450981" transform="matrix(0.260417 0 0 0.260417 -1.52588e-05 0)" d="M273.053 456L273.559 455.409L273.911 455.752C275.104 457.328 274.81 460.248 274.527 462.076C274.155 462.415 273.785 462.685 273.375 462.974C272.636 461.393 273.074 457.864 273.053 456Z"/>
	<path fill="#85D6D4" transform="matrix(0.260417 0 0 0.260417 -1.52588e-05 0)" d="M358.944 389.472L359.116 390.18L335.425 408.968L339.133 375.539L350.701 388.905C353.479 390.558 355.554 390.385 358.586 389.577L358.944 389.472Z"/>
	<path fill="#F6B064" transform="matrix(0.260417 0 0 0.260417 -1.52588e-05 0)" d="M352.803 240.434C359.563 242.796 367.225 244.609 372.575 249.698L381.517 258.835C385.135 262.201 389.196 265.308 392.247 269.211C393.563 270.895 394.573 272.365 394.312 274.576C393.632 274.913 393.706 275.021 392.895 274.826C389.62 274.038 386.119 271.284 383.233 269.513C375.385 264.693 366.437 260.185 360.328 253.105C357.16 249.433 355.197 244.632 352.803 240.434Z"/>
	<path fill="#F6B064" transform="matrix(0.260417 0 0 0.260417 -1.52588e-05 0)" d="M432.251 207.089C434.322 209.325 436.34 211.498 437.93 214.112C445.489 226.541 438.613 244.441 435.462 257.536C435.271 258.288 435.089 258.518 434.625 259.115L433.978 258.679C431.907 253.618 431.377 247.625 430.514 242.25C429.504 235.965 427.79 229.093 428.448 222.736C429 217.408 430.925 212.268 432.251 207.089Z"/>
	<path fill="#008094" fill-opacity="0.10196079" transform="matrix(0.260417 0 0 0.260417 -1.52588e-05 0)" d="M254.782 426.176C256.038 426.19 257.294 426.329 258.468 425.812C259.146 423.917 260.167 419.116 259.555 417.188C259.294 416.366 258.612 416.294 258.489 415.241L259.5 415.077C260.079 415.579 260.398 415.847 260.662 416.587C261.447 418.779 262.806 420.82 263.73 422.987C265.491 426.899 267.32 430.623 269.514 434.319C271.767 438.114 274.38 441.719 276.042 445.837L277.214 448.835L276.881 450.562L276 449.88C274.748 450.109 274.376 450.266 273.154 449.812L271.073 447.094L270.469 447.377C270.604 448.456 270.383 447.831 270.832 448.43C271.176 448.888 271.338 449.421 271.312 450C271.295 450.4 270.899 450.767 270.562 450.941L270.002 451.127C269.455 451.909 269.488 451.916 269.564 452.874L268.705 453.572C269.043 454.209 269.013 454.73 269.066 455.438C268.574 455.208 268.276 455.037 267.844 454.689L267.839 453.39L266.725 452.45L266.344 452.156L266.909 451.266L266.055 450.428L265.793 450.938L265.321 451.021L264.569 451.142C263.149 447.963 260.881 444.926 258.851 442.107C253.362 434.486 247.255 427.872 240.027 421.85L240.053 420.711L240.202 420.156L240.562 418.125L240.911 418.457C241.427 418.927 241.189 418.742 241.679 419.024C242.75 419.64 243.742 420.699 244.756 421.443C246.006 422.36 246.95 423.287 248.344 424.031C250.091 424.964 251.777 425.88 253.616 426.637C254.185 426.871 255.293 426.995 255.75 427.312C256.491 427.827 255.514 428.065 256.873 427.873L257.615 427.312L257.438 426.919L254.782 426.176ZM276.042 445.837C274.38 441.719 271.767 438.114 269.514 434.319C267.32 430.623 265.491 426.899 263.73 422.987L262.809 423.75L263.627 425.998L263.908 426.363C264.261 426.832 264.235 426.962 264.395 427.498L264.617 428.145C264.911 429.058 264.806 428.686 264.95 429.628C265.063 430.367 265.197 430.528 265.502 431.156C265.765 431.698 265.795 431.83 265.688 432.421C267.173 433.172 267.897 434.329 268.355 435.938C268.87 437.749 269.754 439.114 270.073 441C270.314 442.425 270.733 443.159 271.761 444.133C272.705 445.029 273.279 446.209 273.767 447.396L274.402 447.586C275.084 447.814 275.326 447.94 275.812 448.428L276.184 448.125C276.121 447.377 275.992 446.584 276.042 445.837Z"/>
	<path fill="#008095" fill-opacity="0.070588239" transform="matrix(0.260417 0 0 0.260417 -1.52588e-05 0)" d="M276.042 445.837C275.992 446.584 276.121 447.377 276.184 448.125L275.812 448.428C275.326 447.94 275.084 447.814 274.402 447.586L273.767 447.396C273.279 446.209 272.705 445.029 271.761 444.133C270.733 443.159 270.314 442.425 270.073 441C269.754 439.114 268.87 437.749 268.355 435.938C267.897 434.329 267.173 433.172 265.688 432.421C265.795 431.83 265.765 431.698 265.502 431.156C265.197 430.528 265.063 430.367 264.95 429.628C264.806 428.686 264.911 429.058 264.617 428.145L264.395 427.498C264.235 426.962 264.261 426.832 263.908 426.363L263.627 425.998L262.809 423.75L263.73 422.987C265.491 426.899 267.32 430.623 269.514 434.319C271.767 438.114 274.38 441.719 276.042 445.837Z"/>
	<path fill="#85D6D4" transform="matrix(0.260417 0 0 0.260417 -1.52588e-05 0)" d="M334.882 350.588C334.919 343.544 333.671 336.869 332.261 330C330.677 322.281 329.186 315.34 325.481 308.298C327.219 309.099 328.852 310.465 330.464 311.518L338.132 316.119C339.242 316.757 340.72 317.863 341.964 318.025L342.468 318.074L343.977 318.285L344.383 318.87L344.511 327.533C344.439 329.703 343.429 334.824 344.245 336.552C344.33 337.638 344.255 338.17 344.059 339.188L343.377 347.775C343.239 348.802 343.241 349.957 343.677 350.914L342.641 357.375C342.525 357.961 342.67 358.07 342.251 358.316C341.042 359.025 336.496 358.829 335.034 358.568L334.882 350.588Z"/>
	<path fill="#B1DBE5" transform="matrix(0.260417 0 0 0.260417 -1.52588e-05 0)" d="M342.468 318.074L343.977 318.285L344.383 318.87L344.511 327.533C344.439 329.703 343.429 334.824 344.245 336.552C344.33 337.638 344.255 338.17 344.059 339.188L343.377 347.775C343.239 348.802 343.241 349.957 343.677 350.914L342.641 357.375C342.525 357.961 342.67 358.07 342.251 358.316C341.042 359.025 336.496 358.829 335.034 358.568L334.882 350.588C335.073 351.513 335.188 352.389 335.625 353.234C336.823 351.424 336.626 347.235 337.151 345C338.536 339.107 340.841 333.487 341.86 327.493C342.395 324.349 342.448 321.253 342.468 318.074Z"/>
	<path fill="#85D6D4" fill-opacity="0.98039216" transform="matrix(0.260417 0 0 0.260417 -1.52588e-05 0)" d="M360.084 600.779C359.219 600.811 358.379 600.871 357.527 600.686L343.952 598.712C344.424 589.621 345.416 580.738 348.547 572.133C351.701 563.467 356.716 556.013 362.148 548.673C363.612 546.696 365.133 543.918 367.379 542.868C366.177 546.575 365.681 550.287 364.82 554.062C362.338 564.948 360.708 575.537 359.143 586.557C358.525 590.914 357.326 595.227 357.136 599.625C357.824 600.476 359.066 600.551 360.084 600.779Z"/>
	<defs>
		<linearGradient id="gradient_0" gradientUnits="userSpaceOnUse" x1="261.08115" y1="471.91592" x2="257.84146" y2="470.65848">
			<stop offset="0" stop-color="#75D0D3" stop-opacity="0.96470588"/>
			<stop offset="1" stop-color="#84D8DB"/>
		</linearGradient>
	</defs>
	<path fill="url(#gradient_0)" transform="matrix(0.260417 0 0 0.260417 -1.52588e-05 0)" d="M252.44 463.971C254.15 465.425 255.874 467.026 257.771 468.23C260.471 469.943 263.782 471.067 266.74 472.262L266.939 472.589L266.425 473.199C265.64 473.245 265.023 473.235 264.254 473.063L263.932 473.485C263.329 474.169 262.744 474.396 261.938 474.78L261.685 475.623L261.667 475.637C258.973 472.762 253.146 467.837 252.44 463.971Z"/>
	<path fill="#85D6D4" fill-opacity="0.98039216" transform="matrix(0.260417 0 0 0.260417 -1.52588e-05 0)" d="M239.263 424.439L238.727 422.625L239.226 421.805L240.027 421.85C247.255 427.872 253.362 434.486 258.851 442.107C260.881 444.926 263.149 447.963 264.569 451.142L270.827 464.625L270.339 465.482L269.014 464.776C268.918 464.236 268.016 463.056 267.693 462.56C262.532 454.632 254.056 450.33 248.399 442.851C244.199 437.299 242.389 430.576 239.263 424.439Z"/>
	<defs>
		<linearGradient id="gradient_1" gradientUnits="userSpaceOnUse" x1="291.84183" y1="266.17685" x2="317.97729" y2="328.97995">
			<stop offset="0" stop-color="#008699" stop-opacity="0"/>
			<stop offset="1" stop-color="#008094" stop-opacity="0.35686275"/>
		</linearGradient>
	</defs>
	<path fill="url(#gradient_1)" transform="matrix(0.260417 0 0 0.260417 -1.52588e-05 0)" d="M297.726 301.678C295.558 292.475 293.628 282.457 295.016 272.993C295.739 268.061 298.027 262.296 300.302 257.852C300.059 262.471 299.833 268.135 301.018 272.641C302.9 279.798 307.812 285.292 311.508 291.544C314.215 296.125 315.987 301.248 316.903 306.489C317.194 308.154 317.782 310.635 317.614 312.285L317.941 333.229C317.26 331.817 317.097 330.763 317.074 329.194L317.073 328.688L316.861 328.688L316.341 330.311C315.825 330.63 315.379 330.928 314.788 331.094C314.165 331.268 313.085 333.881 312.562 334.664C311.714 334.714 310.6 334.664 309.8 334.347C307.901 333.594 306.009 332.156 306.056 329.948C306.075 329.071 306.521 328.241 306.581 327.375C306.642 326.502 305.928 325.163 305.594 324.346L305.351 323.616L305.583 322.129L302.148 314.294L300.285 309.539L297.726 301.678ZM314.251 326.153L311.625 328.25L310.955 327.901L311.358 325.858L309.63 326.792L309.432 327.75L308.813 327.983C307.98 327.564 307.878 327.322 307.362 326.528C306.868 325.485 306.497 325.066 305.594 324.346C305.928 325.163 306.642 326.502 306.581 327.375C306.521 328.241 306.075 329.071 306.056 329.948C306.009 332.156 307.901 333.594 309.8 334.347C310.6 334.664 311.714 334.714 312.562 334.664C313.085 333.881 314.165 331.268 314.788 331.094C315.379 330.928 315.825 330.63 316.341 330.311L316.861 328.688L317.073 328.688L317.074 329.194C317.097 330.763 317.26 331.817 317.941 333.229L317.614 312.285L316.658 312.437L316.609 312.905C316.497 313.876 316.447 314.66 315.933 315.505C315.197 316.714 315.364 318.751 315.281 320.146L314.809 330.562C314.713 329.784 314.72 328.899 314.336 328.211L314.413 327.854C314.523 327.267 314.353 326.735 314.251 326.153ZM305.583 322.129L305.351 323.616L305.594 324.346C306.497 325.066 306.868 325.485 307.362 326.528C308.627 325.936 310.378 325.304 311.405 324.367C314.026 321.978 313.458 317.988 313.273 314.827L312.837 314.852C311.989 315.44 309.938 316.607 309.443 317.481C308.794 318.626 308.549 320.2 307.914 321.446L307.312 321.431L306.98 322.312L305.583 322.129ZM297.726 301.678L300.285 309.539C300.341 308.752 300.397 308.092 300.562 307.316L302.184 308.968L303.02 308.021C303.11 307.292 303.136 306.723 302.968 306.009L302.811 305.379L303.375 306.375C304.023 306.477 303.77 306.372 304.355 306.747L304.774 307.031C304.655 306.169 304.517 305.27 304.154 304.471C303.414 302.846 302.114 300.323 300.375 299.677C299.091 300.488 299.165 300.684 298.694 302.062L297.726 301.678ZM300.285 309.539L302.148 314.294L302.429 312.562C302.874 313.04 303.121 313.205 303.748 313.389L303.68 313.125C303.704 312.299 303.212 311.918 303.228 311.481C303.258 310.672 303.906 310.795 303.663 309.548C302.879 309.796 303.228 309.759 302.63 309.759L302.184 308.968L300.562 307.316C300.397 308.092 300.341 308.752 300.285 309.539ZM311.358 325.858L310.955 327.901L311.625 328.25L314.251 326.153C314.219 325.273 314.2 324.559 314.426 323.696C314.855 322.055 314.591 320.004 314.548 318.305L314.326 318.375C314.196 319.737 314.232 321.606 313.729 322.865L313.5 323.308C312.983 324.349 312.536 324.86 311.645 325.619L311.358 325.858Z"/>
	<path fill="#008094" fill-opacity="0.27058825" transform="matrix(0.260417 0 0 0.260417 -1.52588e-05 0)" d="M311.358 325.858L311.645 325.619C312.536 324.86 312.983 324.349 313.5 323.308L313.729 322.865C314.232 321.606 314.196 319.737 314.326 318.375L314.548 318.305C314.591 320.004 314.855 322.055 314.426 323.696C314.2 324.559 314.219 325.273 314.251 326.153L311.625 328.25L310.955 327.901L311.358 325.858Z"/>
	<path fill="#008497" fill-opacity="0.29411766" transform="matrix(0.260417 0 0 0.260417 -1.52588e-05 0)" d="M300.285 309.539C300.341 308.752 300.397 308.092 300.562 307.316L302.184 308.968L302.63 309.759C303.228 309.759 302.879 309.796 303.663 309.548C303.906 310.795 303.258 310.672 303.228 311.481C303.212 311.918 303.704 312.299 303.68 313.125L303.748 313.389C303.121 313.205 302.874 313.04 302.429 312.562L302.148 314.294L300.285 309.539Z"/>
	<path fill="#008497" fill-opacity="0.3137255" transform="matrix(0.260417 0 0 0.260417 -1.52588e-05 0)" d="M297.726 301.678L298.694 302.062C299.165 300.684 299.091 300.488 300.375 299.677C302.114 300.323 303.414 302.846 304.154 304.471C304.517 305.27 304.655 306.169 304.774 307.031L304.355 306.747C303.77 306.372 304.023 306.477 303.375 306.375L302.811 305.379L302.968 306.009C303.136 306.723 303.11 307.292 303.02 308.021L302.184 308.968L300.562 307.316C300.397 308.092 300.341 308.752 300.285 309.539L297.726 301.678Z"/>
	<path fill="#008094" fill-opacity="0.35294119" transform="matrix(0.260417 0 0 0.260417 -1.52588e-05 0)" d="M305.583 322.129L306.98 322.312L307.312 321.431L307.914 321.446C308.549 320.2 308.794 318.626 309.443 317.481C309.938 316.607 311.989 315.44 312.837 314.852L313.273 314.827C313.458 317.988 314.026 321.978 311.405 324.367C310.378 325.304 308.627 325.936 307.362 326.528C306.868 325.485 306.497 325.066 305.594 324.346L305.351 323.616L305.583 322.129Z"/>
	<path fill="#008497" fill-opacity="0.19607843" transform="matrix(0.260417 0 0 0.260417 -1.52588e-05 0)" d="M314.251 326.153C314.353 326.735 314.523 327.267 314.413 327.854L314.336 328.211C314.72 328.899 314.713 329.784 314.809 330.562L315.281 320.146C315.364 318.751 315.197 316.714 315.933 315.505C316.447 314.66 316.497 313.876 316.609 312.905L316.658 312.437L317.614 312.285L317.941 333.229C317.26 331.817 317.097 330.763 317.074 329.194L317.073 328.688L316.861 328.688L316.341 330.311C315.825 330.63 315.379 330.928 314.788 331.094C314.165 331.268 313.085 333.881 312.562 334.664C311.714 334.714 310.6 334.664 309.8 334.347C307.901 333.594 306.009 332.156 306.056 329.948C306.075 329.071 306.521 328.241 306.581 327.375C306.642 326.502 305.928 325.163 305.594 324.346C306.497 325.066 306.868 325.485 307.362 326.528C307.878 327.322 307.98 327.564 308.813 327.983L309.432 327.75L309.63 326.792L311.358 325.858L310.955 327.901L311.625 328.25L314.251 326.153Z"/>
	<path fill="#7DCFCF" fill-opacity="0.62352943" transform="matrix(0.260417 0 0 0.260417 -1.52588e-05 0)" d="M172.672 465.704C175.308 465.207 177.991 465.297 180.661 465.349C188.191 465.497 196.199 466.902 202.799 470.723L202.811 470.756L215.586 478.791L216.871 479.465L219.854 481.571L221.981 483.093C221.486 484.588 221.5 485.197 219.938 485.862C218.806 486.343 218.066 486.473 217.025 487.223L216.68 487.466L215.201 487.099L206.979 484.848L200.645 483.475C204.421 489.361 211.37 492.795 214.6 498.831C215.896 501.253 216.574 504.181 217.323 506.817L216.883 506.548C216.305 506.185 216.519 506.355 216.094 505.928L216.087 506.503C216.053 506.926 215.846 507.326 215.833 507.75L216.157 509.057C216.866 511.794 216.28 514.959 216.707 517.864C216.806 518.537 216.766 519.194 217.213 519.708C217.604 520.156 217.473 519.974 217.669 520.595L217.488 520.977C217.016 522.34 217.894 526.576 217.145 527.396C216.874 527.693 216.399 527.737 216.111 528.018C215.46 528.655 214.752 530.381 214.686 531.281C215.416 532.241 215.168 533.071 216.08 533.675L215.725 534.642C214.905 534.802 214.095 534.124 213.361 533.736C198.836 518.72 187.048 502.71 177.169 484.324C175.164 480.592 172.915 476.927 171.328 472.992L168.013 465.777L172.672 465.704ZM171.328 472.992L172.284 473.432C172.702 473.022 172.575 473.077 173.094 472.834L173.662 472.594C174.988 472.02 175.661 472.14 177.081 472.42L177.562 472.521C177.562 471.768 177.587 471.582 176.985 471.043L176.438 470.625L177.004 469.867C177.629 469.836 177.387 469.867 177.991 469.762L178.406 469.686L178.781 470.436C179.052 471.083 178.974 471.095 179.52 471.643C180.178 470.01 180.58 467.29 182.029 466.279L182.438 466.012L180.478 465.791L174.448 465.848L172.672 465.704L168.013 465.777L171.328 472.992ZM216.871 479.465L217.518 480.938C216.011 482.525 213.849 482.893 211.72 482.993C210.133 483.067 208.597 482.496 207.026 482.812L206.438 483.607L206.979 484.848L215.201 487.099L216.68 487.466L217.025 487.223C218.066 486.473 218.806 486.343 219.938 485.862C221.5 485.197 221.486 484.588 221.981 483.093L219.854 481.571L216.871 479.465ZM202.811 470.756L202.051 471.196L202.528 471.775C202.931 472.269 203.206 472.726 203.528 473.271L203.924 473.895C204.365 474.61 204.353 475.212 204.606 475.979C205.015 477.218 206.099 477.612 207.158 478.226C208.242 478.854 208.647 479.387 209.346 480.406C209.691 480.909 210.024 481.132 210.562 481.401C212.438 481.353 213.19 480.842 214.688 479.789L215.461 479.351L215.586 478.791L202.811 470.756Z"/>
	<path fill="#85D6D4" fill-opacity="0.43529412" transform="matrix(0.260417 0 0 0.260417 -1.52588e-05 0)" d="M202.811 470.756L215.586 478.791L215.461 479.351L214.688 479.789C213.19 480.842 212.438 481.353 210.562 481.401C210.024 481.132 209.691 480.909 209.346 480.406C208.647 479.387 208.242 478.854 207.158 478.226C206.099 477.612 205.015 477.218 204.606 475.979C204.353 475.212 204.365 474.61 203.924 473.895L203.528 473.271C203.206 472.726 202.931 472.269 202.528 471.775L202.051 471.196L202.811 470.756Z"/>
	<path fill="#85D6D4" fill-opacity="0.79607844" transform="matrix(0.260417 0 0 0.260417 -1.52588e-05 0)" d="M216.871 479.465L219.854 481.571L221.981 483.093C221.486 484.588 221.5 485.197 219.938 485.862C218.806 486.343 218.066 486.473 217.025 487.223L216.68 487.466L215.201 487.099L206.979 484.848L206.438 483.607L207.026 482.812C208.597 482.496 210.133 483.067 211.72 482.993C213.849 482.893 216.011 482.525 217.518 480.938L216.871 479.465ZM219.854 481.571C219.086 482.942 218.639 482.933 217.545 483.843L217.314 484.219L216.566 484.688L216.377 485.252C215.978 485.967 215.527 486.285 215.201 487.099L216.68 487.466L217.025 487.223C218.066 486.473 218.806 486.343 219.938 485.862C221.5 485.197 221.486 484.588 221.981 483.093L219.854 481.571Z"/>
	<path fill="#86D3D4" fill-opacity="0.81176472" transform="matrix(0.260417 0 0 0.260417 -1.52588e-05 0)" d="M219.854 481.571L221.981 483.093C221.486 484.588 221.5 485.197 219.938 485.862C218.806 486.343 218.066 486.473 217.025 487.223L216.68 487.466L215.201 487.099C215.527 486.285 215.978 485.967 216.377 485.252L216.566 484.688L217.314 484.219L217.545 483.843C218.639 482.933 219.086 482.942 219.854 481.571Z"/>
	<path fill="#7DD0CF" fill-opacity="0.45490196" transform="matrix(0.260417 0 0 0.260417 -1.52588e-05 0)" d="M171.328 472.992L168.013 465.777L172.672 465.704L174.448 465.848L180.478 465.791L182.438 466.012L182.029 466.279C180.58 467.29 180.178 470.01 179.52 471.643C178.974 471.095 179.052 471.083 178.781 470.436L178.406 469.686L177.991 469.762C177.387 469.867 177.629 469.836 177.004 469.867L176.438 470.625L176.985 471.043C177.587 471.582 177.562 471.768 177.562 472.521L177.081 472.42C175.661 472.14 174.988 472.02 173.662 472.594L173.094 472.834C172.575 473.077 172.702 473.022 172.284 473.432L171.328 472.992ZM174.448 465.848C174.208 467.271 173.39 467.545 172.993 469.041C173.738 469.682 174.184 469.7 175.165 469.615L176.761 469.312C178.096 467.443 178.49 466.852 180.478 465.791L174.448 465.848Z"/>
	<defs>
		<linearGradient id="gradient_2" gradientUnits="userSpaceOnUse" x1="174.96315" y1="466.83954" x2="175.28685" y2="468.78546">
			<stop offset="0" stop-color="#79CCCE" stop-opacity="0.3882353"/>
			<stop offset="1" stop-color="#7BCCCF" stop-opacity="0.42352942"/>
		</linearGradient>
	</defs>
	<path fill="url(#gradient_2)" transform="matrix(0.260417 0 0 0.260417 -1.52588e-05 0)" d="M174.448 465.848L180.478 465.791C178.49 466.852 178.096 467.443 176.761 469.312L175.165 469.615C174.184 469.7 173.738 469.682 172.993 469.041C173.39 467.545 174.208 467.271 174.448 465.848Z"/>
	<path fill="#B1DBE5" transform="matrix(0.260417 0 0 0.260417 -1.52588e-05 0)" d="M376.123 154.665C383.001 154.133 390.249 154.5 397.127 154.869C430.861 156.677 465.261 165.732 494.623 182.747L494.25 183.092C493.962 182.877 493.491 182.505 493.125 182.438L492.562 182.434C491.942 181.75 491.204 181.266 490.365 180.885L485.25 178.312L484.5 178.125C483.814 177.771 483.491 177.309 482.625 177.188L482.062 177.184L481.688 176.625L480.75 176.342C480.44 176.185 480.17 175.954 479.859 175.799L479.25 175.5L478.125 174.938L477.562 174.934C477.125 174.427 476.535 173.986 475.875 173.812C474.756 173.518 475.485 173.972 474.566 173.438L474 173.062C472.812 172.464 470.404 171.44 469.125 171.188L468.375 171.092L468 170.812L467.438 170.625C466.638 170.317 466.726 170.35 465.938 170.434L465.375 169.967C464.835 170.37 464.738 170.248 464.062 170.25L463.316 169.312C463.304 169.901 463.007 170.077 462.656 170.531L462.188 170.25L461.531 170.531L461.062 170.25L460.406 170.531L459.75 170.342L458.906 170.906C458.134 170.775 458.079 170.943 457.406 171.281L457.031 171.094L456.842 171.375L456.562 171.934L455.625 171.934C454.457 172.712 452.432 172.436 451.031 172.406C449.844 172.381 448.784 172.856 447.656 172.781L447 172.688C446.024 173.154 444.448 173.24 443.379 173.116L443.062 173.059L442.312 173.809L441.75 173.25L441.188 173.809L440.625 173.25L440.062 173.809L439.5 173.25L438.938 173.809L438.375 173.25L437.812 173.809L437.25 173.25L436.688 173.809L436.125 173.25L435.562 173.809L435 173.25L434.438 173.809L433.875 173.25L433.312 173.809L432.75 173.25L432.188 173.809L431.625 173.25L431.062 173.809L430.5 173.25L429.938 173.809L429.375 173.25L428.812 173.809L428.25 173.25L427.688 173.809L427.125 173.25L426.562 173.809L426 173.25L425.438 173.809L424.875 173.25L424.312 173.809L423.75 173.25L423.188 173.809L422.625 173.25L422.062 173.809L421.5 173.25L420.938 173.809L420.375 173.25L419.812 173.809L419.25 173.25C417.777 174.713 411.502 173.422 409.115 173.903C408.769 173.973 408.793 174.034 408.469 173.998C406.781 173.814 405.085 174.047 403.406 173.906C402.612 173.84 402.7 173.831 402 174.092L401.531 173.811L400.922 173.812L374.625 173.809L374.156 173.436C373.467 173.985 373.313 173.781 372.469 173.719L372.094 173.998L371.438 173.809C370.785 174.461 369.541 174.184 368.625 174.184L368.156 173.811L367.5 174.184L367.031 173.811L366.375 174.184L365.906 173.811L365.25 174.184L364.781 173.811L364.125 174.184L363.656 173.811L363 174.184L362.531 173.811L361.875 174.184L361.406 173.811L360.75 174.184L360.281 173.811L359.625 174.184L359.156 173.811L358.5 174.184L358.031 173.811L357.375 174.184L356.812 173.809L355.875 174.559L355.406 174.094L354.938 174.559L354.375 174L353.812 174.559L353.25 174L352.688 174.559L352.125 174L351.562 174.559L351 174L350.438 174.559L349.875 174L349.406 174.373L349.031 174.094L348.375 174.184L347.906 173.811L347.25 174.184L346.781 173.811L346.125 174.184L345.656 173.811L345 174.184L344.531 173.811L343.875 174.184L343.406 173.811L342.75 174.184C341.813 173.561 340.149 173.81 339 173.809C337.355 172.18 325.787 174.765 323.25 172.875L322.688 173.434C322.069 172.815 320.412 173.06 319.5 173.059L319.031 172.594L318.562 173.059L318 172.5L317.438 173.059L316.875 172.5L316.312 173.059L315.75 172.5L315.188 173.059L314.625 172.5L314.156 172.873C313.62 172.474 313.571 172.616 312.938 172.684L312.375 172.125L311.812 172.684L311.25 172.125L310.781 172.498L310.5 172.312C309.733 172.307 309.88 172.252 309.375 171.75L308.906 172.123C308.441 171.816 308.736 171.953 307.969 171.844L307.594 172.123L307.125 171.842C306.44 171.387 306.191 171.215 305.344 171.094L304.969 171.373L304.5 171.092L303.941 170.812L304.031 169.969L303 169.875C301.449 170.686 299.259 171.638 297.58 172.096L297.094 172.219L296.438 172.5L295.5 172.875L295.031 173.248L294.562 173.25L294.188 173.809L293.625 173.625L290.625 174.938L289.875 175.125L287.49 176.279C286.64 176.737 285.397 177.082 284.666 177.604C282.853 178.898 280.216 179.55 278.25 180.75C277.423 181.254 277.49 181.092 276.566 180.938C289.726 174.781 302.807 168.961 316.706 164.605C329.227 160.681 342.028 158.146 355.032 156.469L376.123 154.665Z"/>
	<path fill="#4EA3B1" fill-opacity="0.5411765" transform="matrix(0.260417 0 0 0.260417 -1.52588e-05 0)" d="M589.918 411.813L606.028 401.287L604.13 403.5C604.656 404.272 605.995 405.118 606.938 405.297C607.801 405.461 608.695 405.384 609.562 405.303C611.347 406.113 612.8 407.84 614.066 409.312L614.995 404.788C614.943 409.719 613.859 414.696 612.96 419.536C610.866 430.797 608.17 441.621 604.607 452.518C603.127 457.045 601.695 462.052 599.421 466.238L599.511 465.122C599.724 464.042 599.856 463.308 599.845 462.188C597.85 462.845 597.661 463.656 596.438 465.159L594.78 464.54C593.18 463.865 591.696 463.178 590.204 462.279C587.647 461.291 585.273 459.791 582.741 458.722C575.332 455.594 567.902 453.1 560.193 450.846C555.522 449.288 550.504 449.125 545.772 447.715L545.311 447.687C543.868 447.524 542.752 446.883 541.472 446.231C542.746 444.63 542.577 442.901 544.306 441.525C546.567 440.468 548.733 438.748 550.847 437.391C551.014 436.84 553.536 435.212 554.135 434.752L563.398 428.734C564.729 427.903 566.039 426.773 567.469 426.162C569.376 425.347 570.845 423.706 572.812 423.078C577.339 421.632 581.857 417.859 585.726 415.077C587.254 413.979 588.642 413.257 589.918 411.813ZM552.195 447.021C550.467 446.956 549.084 446.963 547.5 446.17C546.693 446.564 546.335 447.039 545.772 447.715C550.504 449.125 555.522 449.288 560.193 450.846C567.902 453.1 575.332 455.594 582.741 458.722C585.273 459.791 587.647 461.291 590.204 462.279C591.696 463.178 593.18 463.865 594.78 464.54C595.555 463.776 595.315 462.51 595.367 461.438L594.562 460.808C594.562 460.331 594.371 459.998 594.191 459.562L593.379 459.255C593.507 460.049 593.564 459.686 593.273 460.351C591.614 459.258 589.873 458.183 587.998 457.502L587.438 457.316C586.861 456.95 586.639 456.44 585.948 456.095L585.375 455.816C584.38 455.17 583.067 454.399 582.163 453.646C581.492 453.087 581.808 453.271 581.062 452.897L580.498 452.627C579.345 451.959 578.328 451.497 577.125 450.941L571.498 448.502C570.136 447.706 568.892 447.893 567.375 447.941C566.21 446.877 564.402 445.953 562.873 445.559L561.938 445.316C560.425 444.562 557.883 444.941 556.125 444.941C555.421 445.409 555.417 445.313 554.625 445.316C554.024 445.842 553.474 446.299 552.778 446.695L552.195 447.021ZM554.135 434.752C553.536 435.212 551.014 436.84 550.847 437.391C548.733 438.748 546.567 440.468 544.306 441.525C542.577 442.901 542.746 444.63 541.472 446.231C542.752 446.883 543.868 447.524 545.311 447.687C544.966 447.252 544.813 446.94 544.596 446.438L545.056 445.688C545.893 445.359 546.392 445.236 547.296 445.292C547.783 445.322 548.233 445.356 548.721 445.317C548.868 445.305 549.807 445.203 549.831 445.19C550.155 445.012 551.329 442.93 551.666 442.515C553.27 440.541 555.547 439.213 557.175 437.231L557.062 436.875L556.406 437.156C556.317 436.358 556.328 436.31 556.717 435.606L556.21 434.985C555.4 434.657 554.991 434.712 554.135 434.752ZM598.227 455.438L597.761 456.75C598.158 457.5 598.233 457.672 598.943 458.118L599.759 458.062C599.936 456.636 599.877 456.684 599.062 455.483L598.227 455.438Z"/>
	<path fill="#4BA4B1" fill-opacity="0.58823532" transform="matrix(0.260417 0 0 0.260417 -1.52588e-05 0)" d="M598.227 455.438L599.062 455.483C599.877 456.684 599.936 456.636 599.759 458.062L598.943 458.118C598.233 457.672 598.158 457.5 597.761 456.75L598.227 455.438Z"/>
	<path fill="#4BA4B1" fill-opacity="0.32156864" transform="matrix(0.260417 0 0 0.260417 -1.52588e-05 0)" d="M554.135 434.752C554.991 434.712 555.4 434.657 556.21 434.985L556.717 435.606C556.328 436.31 556.317 436.358 556.406 437.156L557.062 436.875L557.175 437.231C555.547 439.213 553.27 440.541 551.666 442.515C551.329 442.93 550.155 445.012 549.831 445.19C549.807 445.203 548.868 445.305 548.721 445.317C548.233 445.356 547.783 445.322 547.296 445.292C546.392 445.236 545.893 445.359 545.056 445.688L544.596 446.438C544.813 446.94 544.966 447.252 545.311 447.687C543.868 447.524 542.752 446.883 541.472 446.231C542.746 444.63 542.577 442.901 544.306 441.525C546.567 440.468 548.733 438.748 550.847 437.391C551.014 436.84 553.536 435.212 554.135 434.752ZM550.847 437.391C548.733 438.748 546.567 440.468 544.306 441.525C544.769 443.23 545.112 443.399 546.562 444.236C548.044 443.849 549.488 442.11 550.81 441.255L551.438 440.857C551.883 439.809 552.312 439.186 551.885 438C551.701 437.491 551.29 437.522 550.847 437.391Z"/>
	<path fill="#4EA3B1" fill-opacity="0.19607843" transform="matrix(0.260417 0 0 0.260417 -1.52588e-05 0)" d="M550.847 437.391C551.29 437.522 551.701 437.491 551.885 438C552.312 439.186 551.883 439.809 551.438 440.857L550.81 441.255C549.488 442.11 548.044 443.849 546.562 444.236C545.112 443.399 544.769 443.23 544.306 441.525C546.567 440.468 548.733 438.748 550.847 437.391Z"/>
	<path fill="#4BA4B1" fill-opacity="0.57647061" transform="matrix(0.260417 0 0 0.260417 -1.52588e-05 0)" d="M552.195 447.021L552.778 446.695C553.474 446.299 554.024 445.842 554.625 445.316C555.417 445.313 555.421 445.409 556.125 444.941C557.883 444.941 560.425 444.562 561.938 445.316L562.873 445.559C564.402 445.953 566.21 446.877 567.375 447.941C568.892 447.893 570.136 447.706 571.498 448.502L577.125 450.941C578.328 451.497 579.345 451.959 580.498 452.627L581.062 452.897C581.808 453.271 581.492 453.087 582.163 453.646C583.067 454.399 584.38 455.17 585.375 455.816L585.948 456.095C586.639 456.44 586.861 456.95 587.438 457.316L587.998 457.502C589.873 458.183 591.614 459.258 593.273 460.351C593.564 459.686 593.507 460.049 593.379 459.255L594.191 459.562C594.371 459.998 594.562 460.331 594.562 460.808L595.367 461.438C595.315 462.51 595.555 463.776 594.78 464.54C593.18 463.865 591.696 463.178 590.204 462.279C587.647 461.291 585.273 459.791 582.741 458.722C575.332 455.594 567.902 453.1 560.193 450.846C555.522 449.288 550.504 449.125 545.772 447.715C546.335 447.039 546.693 446.564 547.5 446.17C549.084 446.963 550.467 446.956 552.195 447.021ZM560.193 450.846C567.902 453.1 575.332 455.594 582.741 458.722C585.273 459.791 587.647 461.291 590.204 462.279C590.778 461.693 590.977 461.257 591.123 460.473C589.983 459.185 588.33 459.045 586.801 458.302C586.08 457.952 585.721 457.38 585.084 456.938C583.143 455.588 580.703 454.423 578.606 453.278C576.16 451.943 573.077 451.329 570.482 450.075L560.823 449.832L560.193 450.846ZM545.772 447.715C550.504 449.125 555.522 449.288 560.193 450.846L560.823 449.832L570.482 450.075C569.984 449.836 569.517 449.658 568.978 449.528C564.362 448.412 561.39 445.67 556.324 446.534L552.195 447.021C550.467 446.956 549.084 446.963 547.5 446.17C546.693 446.564 546.335 447.039 545.772 447.715Z"/>
	<path fill="#4DA4B3" fill-opacity="0.6901961" transform="matrix(0.260417 0 0 0.260417 -1.52588e-05 0)" d="M545.772 447.715C546.335 447.039 546.693 446.564 547.5 446.17C549.084 446.963 550.467 446.956 552.195 447.021L556.324 446.534C561.39 445.67 564.362 448.412 568.978 449.528C569.517 449.658 569.984 449.836 570.482 450.075L560.823 449.832L560.193 450.846C555.522 449.288 550.504 449.125 545.772 447.715Z"/>
	<path fill="#4DA4B3" fill-opacity="0.7019608" transform="matrix(0.260417 0 0 0.260417 -1.52588e-05 0)" d="M560.193 450.846L560.823 449.832L570.482 450.075C573.077 451.329 576.16 451.943 578.606 453.278C580.703 454.423 583.143 455.588 585.084 456.938C585.721 457.38 586.08 457.952 586.801 458.302C588.33 459.045 589.983 459.185 591.123 460.473C590.977 461.257 590.778 461.693 590.204 462.279C587.647 461.291 585.273 459.791 582.741 458.722C575.332 455.594 567.902 453.1 560.193 450.846Z"/>
	<path fill="#7DD0CF" transform="matrix(0.260417 0 0 0.260417 -1.52588e-05 0)" d="M265.734 308.169C266.823 310.162 267.88 312.574 269.461 314.224C272.388 317.28 279.003 319.253 283.032 320.449C287.564 321.794 292.05 323.232 296.169 325.611C302.69 329.378 307.469 335.549 311.043 342.062C313.064 345.748 314.49 349.888 315.988 353.816C318.883 361.41 321.878 369.406 322.925 377.512C323.513 373.705 323.732 369.998 323.627 366.148C324.098 367.77 323.953 369.3 324.322 370.874C324.667 372.345 324.531 374.063 324.547 375.578C324.58 378.667 324.81 382.088 324.284 385.123C323.379 390.344 321.744 394.959 320.049 399.967C317.58 407.262 314.962 414.56 311.411 421.412C309.271 425.542 306.653 429.353 304.231 433.312C303.372 434.718 302.762 437.109 301.688 438.184C301.072 437.184 301.488 436.257 301.312 435.184C301.098 433.871 300.975 432.524 300.612 431.25C300.23 429.904 297.719 415.964 297.881 415.607C299.201 417.388 298.922 420.231 300.375 422.245C301.147 422.115 301.33 422.022 301.957 421.611C302.697 419.966 302.522 417.756 302.46 415.984C302.315 411.823 302.137 407.483 301.535 403.366C301.312 401.843 300.716 398.778 299.437 397.829L299.789 397.418C300.414 396.624 300.421 395.643 300.585 394.688C301.145 391.407 301.288 388.348 301.003 385.02C300.269 376.474 298.743 367.355 295.185 359.498C291.077 350.426 284.68 343.483 278.938 335.501C274.862 329.835 271.31 323.424 268.559 317.019C267.255 313.983 266.093 311.505 265.734 308.169Z"/>
	<path fill="#7DD0CF" transform="matrix(0.260417 0 0 0.260417 -1.52588e-05 0)" d="M391.323 393.957C395.197 393.428 399.784 393.575 403.625 394.321L389.812 430.21C390.799 430.673 392.384 430.167 393.449 429.973L393.123 430.192C390.822 431.673 388.512 431.746 386.2 433.441L385.437 433.96L384.938 434.301L383.812 434.373C383.014 433.522 382.891 432.821 382.902 431.625C382.915 430.263 383.578 429.012 383.752 427.688C383.94 426.259 383.616 424.636 383.41 423.223C375.279 428.205 371.979 437.085 366.453 444.438C363.366 448.546 359.722 452.21 356.356 456.085C355.456 457.121 353.793 459.738 352.728 460.238L347.468 467.373L342.87 474.843C341.51 477.02 339.959 479.127 338.907 481.474L338.463 481.345L337.892 479.925C337.397 481.694 336.777 483.229 335.948 484.87C335.066 485.166 334.465 485.053 333.562 484.941C332.469 485.517 332.32 485.913 331.675 486.938L331.292 485.404L326.852 497.981L321.838 509.625C321.144 511.277 320.638 513.302 319.663 514.79C318.322 516.722 317.582 519.081 316.765 521.281C314.624 527.047 313.076 532.659 311.999 538.704L311.766 539.005L308.443 532.582C306.719 528.601 305.523 524.459 304.286 520.31C299.813 505.309 297.762 489.58 298.887 473.915C299.391 466.888 300.576 459.483 303.203 452.91C308.767 438.989 324.794 428.881 336.735 420.889C346.847 414.121 356.719 407.865 367.834 402.803C372.355 400.744 376.919 398.838 381.618 397.222C384.626 396.188 387.938 395.458 390.833 394.179L391.323 393.957ZM331.292 485.404L331.675 486.938C332.32 485.913 332.469 485.517 333.562 484.941C334.465 485.053 335.066 485.166 335.948 484.87C336.777 483.229 337.397 481.694 337.892 479.925C338.589 478.612 338.94 477.094 339.477 475.702C342.25 468.512 343.673 460.896 346.778 453.832L347.012 453.269C351.58 442.387 360.269 432.835 360.568 420.52L360 419.95C359.608 420.058 359.18 420.076 358.825 420.273C356.893 421.346 354.442 425.063 352.854 426.719C349.347 430.378 345.367 433.664 342.096 437.547C340.618 439.303 339.309 441.287 338.188 443.287C334.395 450.057 333.01 459.031 332.64 466.688C332.331 473.07 332.589 479.11 331.292 485.404Z"/>
	<path fill="#86D3D4" transform="matrix(0.260417 0 0 0.260417 -1.52588e-05 0)" d="M346.778 453.832L347.203 454.754L344.953 460.936C344.201 462.955 343.418 465.607 343.049 467.716C342.776 469.272 342.01 470.757 341.646 472.31C341.496 472.952 341.309 473.35 340.969 473.906C341.065 474.898 340.912 475.138 340.5 476.062C340.91 476.062 341.661 475.229 342 474.938L342.002 474.469C342.539 473.794 343.124 473.386 343.127 472.502L343.408 472.125L343.691 471.562L343.971 471.287C344.409 470.846 344.21 471.093 344.531 470.344L344.146 470.268C343.506 470.109 343.727 470.165 343.1 469.68C343.202 468.557 343.552 468.306 344.236 467.436L345.338 467.513L345.566 468.188L346.875 467.062L346.877 466.502L347.625 465.938L347.627 465.377L348.75 464.438L348.752 463.877C349.255 463.456 349.733 463.221 349.963 462.61C350.177 462.041 350.546 461.807 351 461.438L351.002 460.877C351.518 460.389 351.701 460.168 352.399 459.966L352.728 460.238L347.468 467.373L342.87 474.843C341.51 477.02 339.959 479.127 338.907 481.474L338.463 481.345L337.892 479.925C338.589 478.612 338.94 477.094 339.477 475.702C342.25 468.512 343.673 460.896 346.778 453.832Z"/>
	<path fill="#008497" fill-opacity="0.14117648" transform="matrix(0.260417 0 0 0.260417 -1.52588e-05 0)" d="M242.343 488.025C242.69 488.918 243.013 489.74 243.179 490.688L243.609 493.002L244.312 491.941C245.72 492.388 246.932 494.65 248.273 495.645L249.39 496.483C249.896 497.604 250.167 498.275 249.776 499.5C249.423 500.608 247.546 501.2 246.544 501.647C245.919 501.925 245.43 502.229 244.875 502.624L244.383 502.312C244.457 501.35 244.399 501.279 243.91 500.438L243.875 502.453L242.999 502.871C243.276 501.169 242.936 499.186 242.828 497.45L242.343 488.025Z"/>
	<path fill="#85D6D4" transform="matrix(0.260417 0 0 0.260417 -1.52588e-05 0)" d="M221.981 483.093C226.175 486.342 229.914 490.282 233.598 494.09C235.181 495.726 237.408 497.56 238.065 499.765C231.125 495.255 224.563 490.13 216.68 487.466L217.025 487.223C218.066 486.473 218.806 486.343 219.938 485.862C221.5 485.197 221.486 484.588 221.981 483.093Z"/>
	<path fill="#86D3D4" fill-opacity="0.81176472" transform="matrix(0.260417 0 0 0.260417 -1.52588e-05 0)" d="M213.361 533.736C214.095 534.124 214.905 534.802 215.725 534.642L216.08 533.675C215.168 533.071 215.416 532.241 214.686 531.281C214.752 530.381 215.46 528.655 216.111 528.018C216.399 527.737 216.874 527.693 217.145 527.396C217.894 526.576 217.016 522.34 217.488 520.977L217.669 520.595C217.473 519.974 217.604 520.156 217.213 519.708C216.766 519.194 216.806 518.537 216.707 517.864C216.28 514.959 216.866 511.794 216.157 509.057L215.833 507.75C215.846 507.326 216.053 506.926 216.087 506.503L216.094 505.928C216.519 506.355 216.305 506.185 216.883 506.548L217.323 506.817C219.784 517.42 219.476 530.291 226.728 538.969C228.944 541.62 231.839 543.593 234.746 545.418L237.847 547.221C236.603 548.582 235.174 549.784 234.059 551.25C234.6 552.156 235.351 552.84 235.941 553.701C232.421 551.551 229.248 548.63 226.125 545.947C221.753 542.19 217.025 538.189 213.361 533.736Z"/>
	<path fill="#7DD0CF" fill-opacity="0.47450981" transform="matrix(0.260417 0 0 0.260417 -1.52588e-05 0)" d="M237.847 547.221C239.855 548.122 241.922 549.109 244.044 549.703C246.511 550.404 249.056 550.986 251.625 551.124C254.452 551.275 257.356 551.069 260.205 551.151C261.411 551.186 262.856 551.055 263.947 551.597L259.932 551.563L256.894 551.719C255.876 551.83 253.887 551.804 253.11 552.375C254.13 554.023 255.175 554.916 256.701 556.059C257.388 559.437 258.585 562.842 259.076 566.211C259.156 566.757 259.391 567.236 259.494 567.759L259.494 568.088C258.767 567.9 259.04 568.085 258.619 567.623L257.296 567.757C255.648 566.117 252.152 564.606 250.125 563.346L238.783 555.692L236.368 553.97L235.941 553.701C235.351 552.84 234.6 552.156 234.059 551.25C235.174 549.784 236.603 548.582 237.847 547.221ZM238.783 555.692L250.125 563.346C252.152 564.606 255.648 566.117 257.296 567.757L258.619 567.623L257.74 566.623C257.853 565.753 257.529 565.431 257.043 564.703L256.691 564.188L257.25 564L257.719 564.656L257.816 563.812C257.295 563.039 256.915 562.888 256.128 562.406C255.888 561.805 256.027 562.033 255.614 561.503L255.31 561.128L255.377 560.719L255.566 560.25C255.235 559.92 255.014 560.014 254.562 559.98L254.441 559.312L253.387 559.013L253.326 557.702C253.092 555.397 249.476 555.168 247.973 553.888L247.505 553.482C246.166 552.558 244.204 552.823 242.648 553.042C240.75 553.308 239.926 554.238 238.783 555.692ZM237.847 547.221C236.603 548.582 235.174 549.784 234.059 551.25C234.6 552.156 235.351 552.84 235.941 553.701L236.368 553.97C237.571 550.562 240.985 552.652 243.188 551.74C243.637 551.554 243.938 551.119 244.312 550.809L244.044 549.703C241.922 549.109 239.855 548.122 237.847 547.221Z"/>
	<path fill="#7DCFCF" fill-opacity="0.62352943" transform="matrix(0.260417 0 0 0.260417 -1.52588e-05 0)" d="M237.847 547.221C239.855 548.122 241.922 549.109 244.044 549.703L244.312 550.809C243.938 551.119 243.637 551.554 243.188 551.74C240.985 552.652 237.571 550.562 236.368 553.97L235.941 553.701C235.351 552.84 234.6 552.156 234.059 551.25C235.174 549.784 236.603 548.582 237.847 547.221Z"/>
	<path fill="#85D6D4" fill-opacity="0.43529412" transform="matrix(0.260417 0 0 0.260417 -1.52588e-05 0)" d="M238.783 555.692C239.926 554.238 240.75 553.308 242.648 553.042C244.204 552.823 246.166 552.558 247.505 553.482L247.973 553.888C249.476 555.168 253.092 555.397 253.326 557.702L253.387 559.013L254.441 559.312L254.562 559.98C255.014 560.014 255.235 559.92 255.566 560.25L255.377 560.719L255.31 561.128L255.614 561.503C256.027 562.033 255.888 561.805 256.128 562.406C256.915 562.888 257.295 563.039 257.816 563.812L257.719 564.656L257.25 564L256.691 564.188L257.043 564.703C257.529 565.431 257.853 565.753 257.74 566.623L258.619 567.623L257.296 567.757C255.648 566.117 252.152 564.606 250.125 563.346L238.783 555.692Z"/>
	<path fill="#F9F9F9" transform="matrix(0.260417 0 0 0.260417 -1.52588e-05 0)" d="M227.954 510.188C230.318 509.897 232.616 511.549 234.556 512.857C242.236 518.031 246.469 527.894 250.654 535.861C252.37 539.129 254.473 542.249 255.188 545.916C254.366 545.711 253.801 545.375 253.104 544.901C251.535 543.834 249.819 543.065 248.257 541.986C245.909 540.363 243.902 538.217 242.125 535.997C237.669 530.427 235.077 524.228 231.701 518.062C230.656 516.155 227.726 512.301 227.954 510.188Z"/>
	<defs>
		<linearGradient id="gradient_3" gradientUnits="userSpaceOnUse" x1="271.77914" y1="579.54236" x2="295.53839" y2="566.69153">
			<stop offset="0" stop-color="#7BCED0" stop-opacity="0.85490197"/>
			<stop offset="1" stop-color="#A4E2DF"/>
		</linearGradient>
	</defs>
	<path fill="url(#gradient_3)" transform="matrix(0.260417 0 0 0.260417 -1.52588e-05 0)" d="M259.932 551.563L263.947 551.597C265.616 552.181 266.657 553.771 267.401 555.331L267.601 555.775C268.466 557.081 269.335 558.332 269.959 559.776L276.348 568.697C278.966 570.998 281.222 573.607 283.935 575.829C293.079 583.319 303.813 586.699 314.847 590.281L312 590.434C311.291 590.907 311.297 590.809 310.5 590.809L310.125 590.438L309.375 590.434L309 590.062L308.811 590.531C309.254 590.777 309.57 590.922 310.076 591.023L310.498 591.094L310.684 591.562C308.36 591.397 305.951 590.189 303.744 589.433C290.795 584.999 278.527 579.602 266.579 572.922L257.296 567.757L258.619 567.623C259.04 568.085 258.767 567.9 259.494 568.088L259.494 567.759C259.391 567.236 259.156 566.757 259.076 566.211C258.585 562.842 257.388 559.437 256.701 556.059C255.175 554.916 254.13 554.023 253.11 552.375C253.887 551.804 255.876 551.83 256.894 551.719L259.932 551.563ZM258.619 567.623L257.296 567.757L266.579 572.922L267.393 572.72L267.906 572.25L268.219 572.814L268.285 570.928C267.447 569.771 267.063 568.217 265.924 567.36C265.037 566.693 264.417 565.958 263.691 565.125C262.439 563.688 260.973 562.015 260.292 560.198C259.838 558.987 259.672 557.622 259.043 556.481C258.546 555.579 257.591 555.302 257.131 554.298C256.604 553.15 256.506 552.897 256.894 551.719C255.876 551.83 253.887 551.804 253.11 552.375C254.13 554.023 255.175 554.916 256.701 556.059C257.388 559.437 258.585 562.842 259.076 566.211C259.156 566.757 259.391 567.236 259.494 567.759L259.494 568.088C258.767 567.9 259.04 568.085 258.619 567.623ZM259.932 551.563L259.193 552.169C260.172 553.993 262.568 554.445 264.266 555.357C264.817 555.652 265.229 555.624 265.837 555.624C266.546 556.593 266.351 557.234 266.362 558.389C266.376 559.719 266.717 560.273 267.562 561.276L269.583 561.562C270.115 562.589 270.583 563.706 271.62 564.292C272.963 565.052 273.167 567.386 274.416 567.922C274.898 568.129 275.234 568.367 275.644 568.686L276.348 568.697L269.959 559.776C269.335 558.332 268.466 557.081 267.601 555.775L267.401 555.331C266.657 553.771 265.616 552.181 263.947 551.597L259.932 551.563Z"/>
	<path fill="#86D3D4" fill-opacity="0.96078432" transform="matrix(0.260417 0 0 0.260417 -1.52588e-05 0)" d="M259.932 551.563L263.947 551.597C265.616 552.181 266.657 553.771 267.401 555.331L267.601 555.775C268.466 557.081 269.335 558.332 269.959 559.776L276.348 568.697L275.644 568.686C275.234 568.367 274.898 568.129 274.416 567.922C273.167 567.386 272.963 565.052 271.62 564.292C270.583 563.706 270.115 562.589 269.583 561.562L267.562 561.276C266.717 560.273 266.376 559.719 266.362 558.389C266.351 557.234 266.546 556.593 265.837 555.624C265.229 555.624 264.817 555.652 264.266 555.357C262.568 554.445 260.172 553.993 259.193 552.169L259.932 551.563ZM267.601 555.775C267.125 556.793 266.894 558.05 267.293 559.151C267.497 559.714 267.615 559.818 267.938 560.25C268.7 560.323 269.083 560.557 269.734 560.042L269.959 559.776C269.335 558.332 268.466 557.081 267.601 555.775Z"/>
	<path fill="#85D6D4" fill-opacity="0.98039216" transform="matrix(0.260417 0 0 0.260417 -1.52588e-05 0)" d="M267.601 555.775C268.466 557.081 269.335 558.332 269.959 559.776L269.734 560.042C269.083 560.557 268.7 560.323 267.938 560.25C267.615 559.818 267.497 559.714 267.293 559.151C266.894 558.05 267.125 556.793 267.601 555.775Z"/>
	<path fill="#86D3D4" fill-opacity="0.73725492" transform="matrix(0.260417 0 0 0.260417 -1.52588e-05 0)" d="M258.619 567.623C259.04 568.085 258.767 567.9 259.494 568.088L259.494 567.759C259.391 567.236 259.156 566.757 259.076 566.211C258.585 562.842 257.388 559.437 256.701 556.059C255.175 554.916 254.13 554.023 253.11 552.375C253.887 551.804 255.876 551.83 256.894 551.719C256.506 552.897 256.604 553.15 257.131 554.298C257.591 555.302 258.546 555.579 259.043 556.481C259.672 557.622 259.838 558.987 260.292 560.198C260.973 562.015 262.439 563.688 263.691 565.125C264.417 565.958 265.037 566.693 265.924 567.36C267.063 568.217 267.447 569.771 268.285 570.928L268.219 572.814L267.906 572.25L267.393 572.72L266.579 572.922L257.296 567.757L258.619 567.623Z"/>
	<path fill="#7DCFCF" fill-opacity="0.97647059" transform="matrix(0.260417 0 0 0.260417 -1.52588e-05 0)" d="M472.51 390.462C483.312 388.504 494.335 386.524 505.346 386.503C527.893 386.459 551.39 395.847 569.753 408.54C572.543 410.468 575.461 412.541 577.824 414.986C578.733 415.926 579.306 417.138 580.216 418.041C583.382 416.006 586.512 413.356 589.918 411.813C588.642 413.257 587.254 413.979 585.726 415.077C581.857 417.859 577.339 421.632 572.812 423.078C570.845 423.706 569.376 425.347 567.469 426.162C566.039 426.773 564.729 427.903 563.398 428.734L554.135 434.752C553.536 435.212 551.014 436.84 550.847 437.391C548.733 438.748 546.567 440.468 544.306 441.525C542.577 442.901 542.746 444.63 541.472 446.231L541.007 446.366C535.898 447.718 529.755 446.82 524.438 447.161C517.615 447.6 510.474 449.046 503.808 450.533C474.347 457.107 445.911 469.632 420.958 486.63L401.273 501.512C395.602 505.963 390.317 510.772 385.159 515.803C381.513 519.359 377.976 522.636 375.176 526.936L374.644 525L379.119 507.067C381.707 498.337 385.739 489.795 386.701 480.685L371.228 499.258C366.685 505.174 361.983 511.648 359.047 518.555C356.261 525.106 354.994 532.231 351.894 538.647C348.673 545.314 343.895 551.165 340.819 557.91C339.307 561.224 337.894 564.663 336.749 568.125C336.012 570.354 335.598 573.22 334.526 575.25L334.334 574.825C328.426 562.144 317.278 551.981 311.766 539.005L311.999 538.704C313.076 532.659 314.624 527.047 316.765 521.281C317.582 519.081 318.322 516.722 319.663 514.79C320.638 513.302 321.144 511.277 321.838 509.625L326.852 497.981L331.292 485.404L331.675 486.938C332.32 485.913 332.469 485.517 333.562 484.941C334.465 485.053 335.066 485.166 335.948 484.87C336.777 483.229 337.397 481.694 337.892 479.925L338.463 481.345L338.907 481.474C339.959 479.127 341.51 477.02 342.87 474.843L347.468 467.373L352.728 460.238C353.793 459.738 355.456 457.121 356.356 456.085C359.722 452.21 363.366 448.546 366.453 444.438C371.979 437.085 375.279 428.205 383.41 423.223C383.616 424.636 383.94 426.259 383.752 427.688C383.578 429.012 382.915 430.263 382.902 431.625C382.891 432.821 383.014 433.522 383.812 434.373L384.938 434.301L385.437 433.96L386.2 433.441C388.512 431.746 390.822 431.673 393.123 430.192L393.449 429.973L403.056 426.225C403.543 425.824 403.958 425.474 404.539 425.213L404.918 425.062L405.314 423.938C408.065 421.66 410.538 419.011 413.321 416.809C417.492 413.508 422.463 410.834 427.257 408.563C430.901 407.452 434.418 404.941 437.513 402.787L459.208 394.105L472.51 390.462ZM403.056 426.225L393.449 429.973L393.123 430.192C390.822 431.673 388.512 431.746 386.2 433.441L385.437 433.96L384.938 434.301L383.812 434.373C383.014 433.522 382.891 432.821 382.902 431.625C382.915 430.263 383.578 429.012 383.752 427.688C383.94 426.259 383.616 424.636 383.41 423.223C375.279 428.205 371.979 437.085 366.453 444.438C363.366 448.546 359.722 452.21 356.356 456.085C355.456 457.121 353.793 459.738 352.728 460.238L347.468 467.373L342.87 474.843C341.51 477.02 339.959 479.127 338.907 481.474L338.934 482.812L338.938 483.253C339.187 485.128 340.973 486.308 341.169 488.625C341.245 489.525 341.487 490.369 341.679 491.244L341.819 491.996C341.975 492.81 341.857 492.471 342.17 493.111C346.106 488.935 350.103 484.743 354.862 481.492C362.519 476.262 370.923 472.714 377.683 466.171C385.832 458.283 389.56 448.164 396.112 439.197C400.355 433.389 405.93 429.193 410.761 423.938L410.625 423.461C408.095 423.777 406.059 425.605 403.479 426.144L403.056 426.225ZM331.292 485.404L326.852 497.981L327.502 498.089L327.706 498.547C328.034 499.2 328.423 499.583 328.937 500.087L329.329 500.168C331.085 500.552 331.986 501.069 333.275 502.312C333.271 502.636 333.173 503.225 333.34 503.498L342.17 493.111C341.857 492.471 341.975 492.81 341.819 491.996L341.679 491.244C341.487 490.369 341.245 489.525 341.169 488.625C340.973 486.308 339.187 485.128 338.938 483.253L338.934 482.812L338.907 481.474L338.463 481.345L337.892 479.925C337.397 481.694 336.777 483.229 335.948 484.87C335.066 485.166 334.465 485.053 333.562 484.941C332.469 485.517 332.32 485.913 331.675 486.938L331.292 485.404ZM326.852 497.981L321.838 509.625C321.144 511.277 320.638 513.302 319.663 514.79C319.316 516.103 318.771 517.46 318.938 518.816L319.812 518.812L320.095 518.187C320.718 516.894 322.07 516.131 323.248 515.396L333.34 503.498C333.173 503.225 333.271 502.636 333.275 502.312C331.986 501.069 331.085 500.552 329.329 500.168L328.937 500.087C328.423 499.583 328.034 499.2 327.706 498.547L327.502 498.089L326.852 497.981ZM311.999 538.704C312.899 538.521 312.886 538.455 313.303 537.578C314.372 535.328 314.98 532.684 315.806 530.323C317.654 525.04 320.072 520.011 323.248 515.396C322.07 516.131 320.718 516.894 320.095 518.187L319.812 518.812L318.938 518.816C318.771 517.46 319.316 516.103 319.663 514.79C318.322 516.722 317.582 519.081 316.765 521.281C314.624 527.047 313.076 532.659 311.999 538.704Z"/>
	<path fill="#008497" fill-opacity="0.9254902" transform="matrix(0.260417 0 0 0.260417 -1.52588e-05 0)" d="M311.999 538.704C313.076 532.659 314.624 527.047 316.765 521.281C317.582 519.081 318.322 516.722 319.663 514.79C319.316 516.103 318.771 517.46 318.938 518.816L319.812 518.812L320.095 518.187C320.718 516.894 322.07 516.131 323.248 515.396C320.072 520.011 317.654 525.04 315.806 530.323C314.98 532.684 314.372 535.328 313.303 537.578C312.886 538.455 312.899 538.521 311.999 538.704Z"/>
	<defs>
		<linearGradient id="gradient_4" gradientUnits="userSpaceOnUse" x1="333.84995" y1="500.10968" x2="337.01245" y2="485.97482">
			<stop offset="0" stop-color="#008196" stop-opacity="0.14509805"/>
			<stop offset="1" stop-color="#008296" stop-opacity="0.24313726"/>
		</linearGradient>
	</defs>
	<path fill="url(#gradient_4)" transform="matrix(0.260417 0 0 0.260417 -1.52588e-05 0)" d="M331.292 485.404L331.675 486.938C332.32 485.913 332.469 485.517 333.562 484.941C334.465 485.053 335.066 485.166 335.948 484.87C336.777 483.229 337.397 481.694 337.892 479.925L338.463 481.345L338.907 481.474L338.934 482.812L338.938 483.253C339.187 485.128 340.973 486.308 341.169 488.625C341.245 489.525 341.487 490.369 341.679 491.244L341.819 491.996C341.975 492.81 341.857 492.471 342.17 493.111L333.34 503.498C333.173 503.225 333.271 502.636 333.275 502.312C331.986 501.069 331.085 500.552 329.329 500.168L328.937 500.087C328.423 499.583 328.034 499.2 327.706 498.547L327.502 498.089L326.852 497.981L331.292 485.404Z"/>
	<path fill="#F6B064" transform="matrix(0.260417 0 0 0.260417 -1.52588e-05 0)" d="M344.383 318.87L345.102 318.993C352.265 320.179 360.082 319.582 367.336 319.532C370.218 319.513 373.236 319.29 376.079 319.792C377.007 312.511 377.982 305.702 380.057 298.635C375.866 295.711 371.571 292 366.75 290.205C364.299 289.292 361.627 289.144 359.062 288.729C353.412 287.816 346.338 286.602 341.773 282.938L341.205 282.498C339.5 280.766 339.317 275.399 339.076 272.93C344.803 273.373 350.211 274.272 355.795 275.623C358.627 276.308 361.677 276.968 364.312 278.232C367.936 279.971 371.225 282.542 374.58 284.741C377.545 286.685 380.762 288.483 383.547 290.67L383.759 290.285C387.935 282.872 393.927 275.664 401.339 271.313C404.57 269.416 408.08 267.912 411.171 265.799L401.062 251.119C398.399 247.234 395.403 243.62 393.531 239.254C390.47 232.113 389.255 223.756 388.194 216.104L388.621 216.469C392.817 220.022 398.396 221.506 402.429 225.233C408.575 230.912 408.4 241.176 409.822 248.819C410.828 254.224 412.262 259.524 412.975 264.984C426.488 260.083 441.211 259.701 454.557 265.359C456.625 258.281 459.755 251.399 461.574 244.312C462.623 240.226 462.54 235.809 463.747 231.801C464.267 230.076 465.173 228.425 466.36 227.07C470.98 221.801 477.58 218.296 482.648 213.31C481.236 218.434 481.381 223.664 480.169 228.757C479.473 231.684 478.103 234.524 476.908 237.27C475.386 240.766 473.917 244.295 472.007 247.601C469.64 251.694 466.714 255.489 463.909 259.285C461.924 261.973 460.113 264.823 457.907 267.339C462.498 270.287 467.978 272.779 472.148 276.257C479.395 267.671 486.569 259.495 495.033 252.06C497.761 249.663 500.623 246.944 503.925 245.351C506.493 244.113 509.229 243.76 511.988 243.222C511.379 247.702 510.824 253.484 508.494 257.413C506.144 261.376 501.468 264.581 497.874 267.307L475.78 281.941L483.997 297.669L495.366 289.895C497.755 288.229 500.228 286.279 502.875 285.053C505.022 284.059 507.422 283.696 509.636 282.867C513.215 281.526 516.49 280.213 520.312 279.717C522.994 279.369 526.851 278.59 529.45 279.194C527.68 285.007 525.302 290.592 519.707 293.668C514.62 296.465 506.742 295.629 501.022 296.62C495.64 297.552 490.308 299.795 484.887 300.225L487.805 318.341C503.899 316.62 519.981 314.296 535.044 321.699C528.909 326.474 520.933 329.112 513.134 328.171C510.434 327.846 508.022 326.981 505.419 326.278C498.831 324.498 493.612 323.353 487.93 319.317C487.984 323.334 487.731 327.119 486.965 331.066L485.57 337.194C485.358 337.962 484.759 339.346 484.903 340.089L497.884 343.647L513.727 346.735C519.238 348.071 523.904 350.779 529.728 350.732C528.534 354.736 527.577 358.609 525.174 362.102C517.905 361.113 509.9 358.701 503.417 355.224C499.68 353.22 496.4 350.583 492.911 348.198L483.914 342.49C482.837 343.632 482.218 345.463 481.526 346.875L477.129 355.973C480.574 358.738 483.99 361.498 487.857 363.667L498.941 369.452C501.998 370.963 505.197 372.301 507.744 374.631C510.99 377.601 512.523 381.276 513.332 385.509C509.328 384.982 505.619 384.022 501.908 382.391C499.171 381.189 496.672 379.361 494.118 377.812C486.683 373.303 478.608 369.088 473.096 362.108L472.912 361.859C468.76 365.51 462.69 371.457 457.214 372.71C456.212 373.136 455.15 373.457 454.338 374.191C455.399 380.588 456.38 388.219 459.208 394.105L437.513 402.787C434.418 404.941 430.901 407.452 427.257 408.563C422.463 410.834 417.492 413.508 413.321 416.809C410.538 419.011 408.065 421.66 405.314 423.938L404.918 425.062L404.539 425.213C403.958 425.474 403.543 425.824 403.056 426.225L393.449 429.973C392.384 430.167 390.799 430.673 389.812 430.21L403.625 394.321L406.657 383.75C407.655 380.703 408.905 377.576 409.25 374.374C408.476 373.869 408.636 373.977 407.812 374.059L407.252 373.498L405.75 372.934C405.142 372.733 404.821 372.611 404.28 372.286L403.956 372.145C399.241 369.981 394.583 365.505 390.406 362.359C387.523 365.818 384.341 369.136 380.847 371.983C378.053 374.259 374.958 376.145 372.209 378.473C367.947 382.08 365.127 388.534 358.944 389.472L358.586 389.577C355.554 390.385 353.479 390.558 350.701 388.905C352.514 385.826 352.55 381.736 354.867 378.823C357.257 375.818 362.542 373.769 365.717 371.457C372.555 366.481 378.769 360.608 386.145 356.378L378.441 341.637C374.616 343.468 370.801 345.638 367.3 348.028C363.353 350.723 359.641 353.676 355.193 355.53C351.375 357.121 347.414 357.706 343.323 358.09L342.641 357.375L343.677 350.914C343.241 349.957 343.239 348.802 343.377 347.775L344.059 339.188C344.255 338.17 344.33 337.638 344.245 336.552C343.429 334.824 344.439 329.703 344.511 327.533L344.383 318.87Z"/>
	<path fill="#F9F9F9" transform="matrix(0.260417 0 0 0.260417 -1.52588e-05 0)" d="M454.338 374.191C455.399 380.588 456.38 388.219 459.208 394.105L437.513 402.787L434.056 379.292C441.267 378.54 447.644 377.017 454.338 374.191Z"/>
	<path fill="#F9F9F9" transform="matrix(0.260417 0 0 0.260417 -1.52588e-05 0)" d="M344.245 336.552L345.071 334.562C347.373 332.457 351.204 331.756 354.143 330.764C361.257 328.36 370.227 325.304 375.617 319.88L377.799 338.53L377.213 338.602C372.649 339.182 368.315 340.989 363.92 342.281C358.445 343.892 351.876 345.026 346.869 347.753C345.736 348.37 344.868 349.322 344.097 350.341L343.677 350.914C343.241 349.957 343.239 348.802 343.377 347.775L344.059 339.188C344.255 338.17 344.33 337.638 344.245 336.552Z"/>
	<path fill="#F9F9F9" transform="matrix(0.260417 0 0 0.260417 -1.52588e-05 0)" d="M409.25 374.374L409.53 374.523C413.77 376.687 419.255 377.652 423.926 378.52C425.961 378.898 428.215 379.118 430.161 379.805L430.088 380.148C428.142 389.583 428.693 399.158 427.257 408.563C422.463 410.834 417.492 413.508 413.321 416.809C410.538 419.011 408.065 421.66 405.314 423.938L404.918 425.062L404.539 425.213C403.958 425.474 403.543 425.824 403.056 426.225L393.449 429.973C392.384 430.167 390.799 430.673 389.812 430.21L403.625 394.321L406.657 383.75C407.655 380.703 408.905 377.576 409.25 374.374Z"/>
</svg>
